<svg xmlns="http://www.w3.org/2000/svg" xmlns:xlink="http://www.w3.org/1999/xlink" width="50" zoomAndPan="magnify" viewBox="0 0 37.5 37.499999" height="50" preserveAspectRatio="xMidYMid meet" version="1.0"><defs><clipPath id="id1"><path d="M 10.164062 5.039062 L 27.414062 5.039062 L 27.414062 32.789062 L 10.164062 32.789062 Z M 10.164062 5.039062 " clip-rule="nonzero"/></clipPath></defs><g clip-path="url(#id1)"><path fill="#ffffff" d="M 18.789062 5.039062 C 14.035156 5.039062 10.164062 8.9375 10.164062 13.726562 C 10.164062 15.207031 10.539062 16.664062 11.25 17.945312 L 14.320312 24.121094 L 18.480469 32.597656 C 18.539062 32.714844 18.660156 32.792969 18.789062 32.792969 C 18.921875 32.792969 19.042969 32.714844 19.101562 32.597656 L 23.261719 24.121094 L 26.332031 17.941406 C 26.335938 17.941406 26.335938 17.941406 26.335938 17.941406 C 27.042969 16.660156 27.417969 15.203125 27.417969 13.726562 C 27.417969 8.9375 23.546875 5.039062 18.789062 5.039062 Z M 18.789062 8.625 C 21.585938 8.625 23.855469 10.914062 23.855469 13.726562 C 23.855469 16.539062 21.585938 18.828125 18.789062 18.828125 C 15.996094 18.828125 13.726562 16.539062 13.726562 13.726562 C 13.726562 10.914062 15.996094 8.625 18.789062 8.625 Z M 18.789062 8.625 " fill-opacity="1" fill-rule="nonzero"/></g></svg>