<svg xmlns="http://www.w3.org/2000/svg" xmlns:xlink="http://www.w3.org/1999/xlink" width="50" zoomAndPan="magnify" viewBox="0 0 37.5 37.499999" height="50" preserveAspectRatio="xMidYMid meet" version="1.0"><defs><clipPath id="id1"><path d="M 6.523438 6.523438 L 31 6.523438 L 31 31 L 6.523438 31 Z M 6.523438 6.523438 " clip-rule="nonzero"/></clipPath></defs><g clip-path="url(#id1)"><path fill="#ffffff" d="M 19.679688 6.984375 C 12.484375 6.527344 6.527344 12.484375 6.984375 19.679688 C 7.367188 25.628906 12.171875 30.433594 18.121094 30.8125 C 25.316406 31.273438 31.273438 25.316406 30.8125 18.121094 C 30.433594 12.171875 25.628906 7.367188 19.679688 6.984375 Z M 24.304688 24.824219 C 24.773438 23.210938 25.054688 21.355469 25.09375 19.359375 L 29.910156 19.359375 C 29.804688 21.917969 28.820312 24.253906 27.253906 26.074219 C 26.535156 25.570312 25.53125 25.144531 24.304688 24.824219 Z M 10.546875 26.074219 C 8.980469 24.253906 7.996094 21.917969 7.890625 19.359375 L 12.707031 19.359375 C 12.746094 21.355469 13.023438 23.210938 13.496094 24.824219 C 12.269531 25.144531 11.265625 25.570312 10.546875 26.074219 Z M 13.492188 12.984375 C 13.023438 14.59375 12.746094 16.449219 12.707031 18.441406 L 7.890625 18.441406 C 7.996094 15.894531 8.96875 13.570312 10.523438 11.75 C 11.253906 12.246094 12.265625 12.664062 13.492188 12.984375 Z M 18.441406 18.441406 L 13.625 18.441406 C 13.664062 16.539062 13.945312 14.746094 14.410156 13.195312 C 15.648438 13.445312 17.027344 13.589844 18.441406 13.613281 Z M 18.441406 19.359375 L 18.441406 24.1875 C 17.023438 24.210938 15.648438 24.355469 14.410156 24.609375 C 13.949219 23.058594 13.664062 21.261719 13.625 19.359375 Z M 19.359375 19.359375 L 24.175781 19.359375 C 24.136719 21.261719 23.851562 23.058594 23.390625 24.609375 C 22.152344 24.355469 20.777344 24.210938 19.359375 24.1875 Z M 19.359375 18.441406 L 19.359375 13.613281 C 20.773438 13.589844 22.148438 13.445312 23.390625 13.195312 C 23.851562 14.746094 24.136719 16.539062 24.175781 18.441406 Z M 19.359375 12.695312 L 19.359375 7.925781 C 20.867188 8.210938 22.214844 9.886719 23.101562 12.316406 C 21.949219 12.542969 20.671875 12.671875 19.359375 12.695312 Z M 18.441406 7.925781 L 18.441406 12.695312 C 17.128906 12.671875 15.851562 12.542969 14.699219 12.316406 C 15.582031 9.886719 16.933594 8.210938 18.441406 7.925781 Z M 18.441406 25.105469 L 18.441406 29.875 C 16.933594 29.589844 15.585938 27.914062 14.699219 25.488281 C 15.851562 25.257812 17.125 25.128906 18.441406 25.105469 Z M 19.359375 29.875 L 19.359375 25.105469 C 20.671875 25.128906 21.949219 25.257812 23.101562 25.488281 C 22.214844 27.914062 20.867188 29.589844 19.359375 29.875 Z M 25.09375 18.441406 C 25.054688 16.449219 24.777344 14.59375 24.308594 12.984375 C 25.535156 12.664062 26.546875 12.246094 27.277344 11.75 C 28.828125 13.566406 29.804688 15.894531 29.910156 18.441406 Z M 26.640625 11.066406 C 26 11.472656 25.101562 11.832031 24.027344 12.109375 C 23.453125 10.480469 22.667969 9.152344 21.746094 8.253906 C 23.621094 8.757812 25.300781 9.742188 26.640625 11.066406 Z M 13.773438 12.109375 C 12.699219 11.832031 11.800781 11.472656 11.15625 11.066406 C 12.5 9.742188 14.179688 8.757812 16.054688 8.253906 C 15.132812 9.152344 14.347656 10.480469 13.773438 12.109375 Z M 11.179688 26.757812 C 11.808594 26.34375 12.703125 25.980469 13.773438 25.699219 C 14.351562 27.324219 15.132812 28.648438 16.050781 29.546875 C 14.1875 29.046875 12.519531 28.070312 11.179688 26.757812 Z M 24.023438 25.699219 C 25.097656 25.980469 25.988281 26.34375 26.617188 26.757812 C 25.28125 28.070312 23.609375 29.046875 21.746094 29.546875 C 22.667969 28.648438 23.449219 27.324219 24.023438 25.699219 Z M 24.023438 25.699219 " fill-opacity="1" fill-rule="nonzero"/></g></svg>