<svg xmlns="http://www.w3.org/2000/svg" xmlns:xlink="http://www.w3.org/1999/xlink" width="50" zoomAndPan="magnify" viewBox="0 0 37.5 37.499999" height="50" preserveAspectRatio="xMidYMid meet" version="1.0"><defs><clipPath id="id1"><path d="M 10.199219 4.527344 L 27.449219 4.527344 L 27.449219 33.027344 L 10.199219 33.027344 Z M 10.199219 4.527344 " clip-rule="nonzero"/></clipPath></defs><g clip-path="url(#id1)"><path fill="#ffffff" d="M 25.90625 28.875 L 11.648438 28.808594 L 11.757812 6.875 L 26.015625 6.945312 Z M 18.765625 31.738281 C 18.238281 31.734375 17.8125 31.308594 17.816406 30.785156 C 17.816406 30.261719 18.246094 29.835938 18.773438 29.839844 C 19.300781 29.84375 19.726562 30.269531 19.726562 30.792969 C 19.722656 31.316406 19.292969 31.742188 18.765625 31.738281 Z M 17.117188 5.464844 L 20.671875 5.480469 L 20.667969 6.078125 L 17.113281 6.058594 Z M 24.632812 4.597656 L 13.164062 4.542969 C 11.601562 4.535156 10.328125 5.785156 10.320312 7.335938 L 10.207031 30.125 C 10.203125 31.675781 11.460938 32.941406 13.023438 32.949219 L 24.496094 33.003906 C 26.058594 33.011719 27.328125 31.761719 27.335938 30.207031 L 27.449219 7.421875 C 27.457031 5.867188 26.195312 4.605469 24.632812 4.597656 " fill-opacity="1" fill-rule="nonzero"/></g></svg>