<svg xmlns="http://www.w3.org/2000/svg" xmlns:xlink="http://www.w3.org/1999/xlink" width="400" zoomAndPan="magnify" viewBox="0 0 300 374.999991" height="500" preserveAspectRatio="xMidYMid meet" version="1.0"><defs><g/><clipPath id="id1"><path d="M 99 126.375 L 203 126.375 L 203 160 L 99 160 Z M 99 126.375 " clip-rule="nonzero"/></clipPath><clipPath id="id2"><path d="M 99 126.375 L 203 126.375 L 203 160 L 99 160 Z M 99 126.375 " clip-rule="nonzero"/></clipPath><clipPath id="id3"><path d="M 86.53125 138 L 213.777344 138 L 213.777344 178 L 86.53125 178 Z M 86.53125 138 " clip-rule="nonzero"/></clipPath><clipPath id="id4"><path d="M 105 266 L 195 266 L 195 292.292969 L 105 292.292969 Z M 105 266 " clip-rule="nonzero"/></clipPath></defs><path fill="#eddecd" d="M 111.15625 156.300781 C 107.011719 156.300781 103.640625 152.945312 103.640625 148.816406 L 103.640625 143.160156 C 103.640625 131.300781 112.230469 130.019531 115.921875 130.019531 L 187.039062 130.019531 C 190.738281 130.019531 199.339844 131.300781 199.339844 143.160156 L 199.339844 148.816406 C 199.339844 152.945312 195.964844 156.300781 191.816406 156.300781 Z M 111.15625 156.300781 " fill-opacity="1" fill-rule="nonzero"/><g clip-path="url(#id1)"><path fill="#4d2820" d="M 187.039062 133.660156 C 195.683594 133.660156 195.683594 141.039062 195.683594 143.160156 L 195.683594 148.816406 C 195.683594 150.945312 193.953125 152.664062 191.816406 152.664062 L 111.15625 152.664062 C 109.023438 152.664062 107.292969 150.945312 107.292969 148.816406 L 107.292969 143.160156 C 107.292969 141.039062 107.292969 133.660156 115.921875 133.660156 L 187.039062 133.660156 M 187.039062 126.382812 L 115.921875 126.382812 C 108.21875 126.382812 99.984375 130.789062 99.984375 143.160156 L 99.984375 148.816406 C 99.984375 154.949219 104.996094 159.941406 111.15625 159.941406 L 191.816406 159.941406 C 197.980469 159.941406 202.992188 154.949219 202.992188 148.816406 L 202.992188 143.160156 C 202.992188 130.789062 194.75 126.382812 187.039062 126.382812 Z M 187.039062 126.382812 " fill-opacity="1" fill-rule="nonzero"/></g><path fill="#eddecd" d="M 111.15625 156.300781 C 107.011719 156.300781 103.640625 152.945312 103.640625 148.816406 L 103.640625 143.160156 C 103.640625 131.300781 112.230469 130.019531 115.921875 130.019531 L 135.261719 130.019531 C 136.367188 130.019531 137.414062 130.519531 138.109375 131.378906 C 141.496094 135.574219 146.449219 137.976562 151.699219 137.976562 C 156.953125 137.976562 161.90625 135.574219 165.292969 131.378906 C 165.984375 130.519531 167.03125 130.019531 168.140625 130.019531 L 187.039062 130.019531 C 190.738281 130.019531 199.339844 131.300781 199.339844 143.160156 L 199.339844 148.816406 C 199.339844 152.945312 195.964844 156.300781 191.816406 156.300781 Z M 111.15625 156.300781 " fill-opacity="1" fill-rule="nonzero"/><g clip-path="url(#id2)"><path fill="#4d2820" d="M 187.039062 133.660156 C 195.683594 133.660156 195.683594 141.039062 195.683594 143.160156 L 195.683594 148.816406 C 195.683594 150.945312 193.953125 152.664062 191.816406 152.664062 L 111.15625 152.664062 C 109.023438 152.664062 107.292969 150.945312 107.292969 148.816406 L 107.292969 143.160156 C 107.292969 141.039062 107.292969 133.660156 115.921875 133.660156 L 135.261719 133.660156 C 139.160156 138.488281 145.117188 141.617188 151.699219 141.617188 C 158.289062 141.617188 164.242188 138.488281 168.140625 133.660156 L 187.039062 133.660156 M 187.039062 126.382812 L 168.140625 126.382812 C 165.925781 126.382812 163.832031 127.382812 162.445312 129.101562 C 159.757812 132.429688 155.839844 134.339844 151.699219 134.339844 C 147.5625 134.339844 143.644531 132.429688 140.957031 129.097656 C 139.570312 127.382812 137.476562 126.382812 135.261719 126.382812 L 115.921875 126.382812 C 108.21875 126.382812 99.984375 130.789062 99.984375 143.160156 L 99.984375 148.816406 C 99.984375 154.949219 104.996094 159.941406 111.15625 159.941406 L 191.816406 159.941406 C 197.980469 159.941406 202.992188 154.949219 202.992188 148.816406 L 202.992188 143.160156 C 202.992188 130.789062 194.75 126.382812 187.039062 126.382812 Z M 187.039062 126.382812 " fill-opacity="1" fill-rule="nonzero"/></g><path fill="#eddecd" d="M 118.78125 133.660156 L 115.921875 133.660156 C 107.292969 133.660156 107.292969 141.039062 107.292969 143.160156 L 107.292969 148.816406 C 107.292969 150.945312 109.023438 152.664062 111.15625 152.664062 L 118.78125 152.664062 Z M 118.78125 133.660156 " fill-opacity="1" fill-rule="nonzero"/><path fill="#864a3c" d="M 187.039062 133.660156 L 173.777344 133.660156 L 173.777344 152.664062 L 191.816406 152.664062 C 193.953125 152.664062 195.683594 150.945312 195.683594 148.816406 L 195.683594 143.160156 C 195.683594 141.039062 195.683594 133.660156 187.039062 133.660156 Z M 187.039062 133.660156 " fill-opacity="1" fill-rule="nonzero"/><path fill="#eddecd" d="M 113.507812 283.324219 C 111.652344 283.324219 110.089844 281.9375 109.878906 280.101562 L 95.863281 158.722656 C 95.746094 157.695312 96.074219 156.660156 96.765625 155.886719 C 97.460938 155.113281 98.453125 154.671875 99.492188 154.671875 L 200.585938 154.671875 C 201.625 154.671875 202.617188 155.113281 203.308594 155.886719 C 204.003906 156.660156 204.332031 157.691406 204.214844 158.71875 L 190.367188 280.097656 C 190.160156 281.933594 188.597656 283.324219 186.738281 283.324219 Z M 113.507812 283.324219 " fill-opacity="1" fill-rule="nonzero"/><path fill="#4d2820" d="M 200.585938 158.308594 L 186.738281 279.6875 L 113.507812 279.6875 L 99.492188 158.308594 L 200.585938 158.308594 M 200.585938 151.03125 L 99.492188 151.03125 C 97.410156 151.03125 95.425781 151.917969 94.039062 153.464844 C 92.652344 155.015625 91.996094 157.078125 92.234375 159.140625 L 106.246094 280.515625 C 106.671875 284.191406 109.792969 286.960938 113.507812 286.960938 L 186.738281 286.960938 C 190.453125 286.960938 193.578125 284.183594 194 280.507812 L 207.84375 159.128906 C 208.078125 157.070312 207.421875 155.007812 206.035156 153.460938 C 204.648438 151.914062 202.664062 151.03125 200.585938 151.03125 Z M 200.585938 165.585938 Z M 200.585938 165.585938 " fill-opacity="1" fill-rule="nonzero"/><path fill="#eddecd" d="M 118.78125 158.308594 L 99.492188 158.308594 L 113.507812 279.6875 L 118.78125 279.6875 Z M 118.78125 158.308594 " fill-opacity="1" fill-rule="nonzero"/><path fill="#864a3c" d="M 173.777344 158.308594 L 173.777344 279.6875 L 186.738281 279.6875 L 200.585938 158.308594 Z M 173.777344 158.308594 " fill-opacity="1" fill-rule="nonzero"/><path fill="#eddecd" d="M 110.023438 253.125 C 108.164062 253.125 106.605469 251.738281 106.390625 249.902344 L 99.847656 193.242188 C 99.726562 192.210938 100.054688 191.179688 100.75 190.402344 C 101.441406 189.628906 102.433594 189.1875 103.476562 189.1875 L 196.648438 189.1875 C 197.6875 189.1875 198.679688 189.628906 199.375 190.402344 C 200.066406 191.175781 200.394531 192.207031 200.277344 193.234375 L 193.816406 249.898438 C 193.605469 251.738281 192.042969 253.125 190.183594 253.125 Z M 110.023438 253.125 " fill-opacity="1" fill-rule="nonzero"/><path fill="#4d2820" d="M 196.648438 192.824219 L 196.652344 192.824219 M 196.648438 192.824219 L 190.183594 249.488281 L 110.023438 249.488281 L 103.476562 192.824219 L 196.648438 192.824219 M 196.648438 185.546875 L 103.476562 185.546875 C 101.394531 185.546875 99.40625 186.433594 98.023438 187.980469 C 96.636719 189.53125 95.976562 191.59375 96.214844 193.65625 L 102.761719 250.320312 C 103.1875 253.992188 106.308594 256.765625 110.023438 256.765625 L 190.183594 256.765625 C 193.902344 256.765625 197.023438 253.984375 197.445312 250.308594 L 203.886719 193.832031 C 203.933594 193.503906 203.957031 193.167969 203.957031 192.824219 C 203.957031 188.804688 200.6875 185.546875 196.648438 185.546875 Z M 196.648438 200.101562 L 196.652344 200.101562 Z M 196.648438 200.101562 " fill-opacity="1" fill-rule="nonzero"/><path fill="#eddecd" d="M 118.78125 192.824219 L 103.476562 192.824219 L 110.023438 249.488281 L 118.78125 249.488281 Z M 118.78125 192.824219 " fill-opacity="1" fill-rule="nonzero"/><path fill="#864a3c" d="M 170.097656 192.824219 L 170.097656 249.488281 L 190.183594 249.488281 L 196.648438 192.824219 Z M 170.097656 192.824219 " fill-opacity="1" fill-rule="nonzero"/><path fill="#eddecd" d="M 98.917969 174.027344 C 94.195312 174.027344 90.351562 170.203125 90.351562 165.5 L 90.351562 151.121094 C 90.351562 146.417969 94.195312 142.59375 98.917969 142.59375 L 201.449219 142.59375 C 206.175781 142.59375 210.019531 146.417969 210.019531 151.121094 L 210.019531 165.5 C 210.019531 170.203125 206.175781 174.027344 201.449219 174.027344 Z M 98.917969 174.027344 " fill-opacity="1" fill-rule="nonzero"/><g clip-path="url(#id3)"><path fill="#4d2820" d="M 201.449219 146.230469 C 204.164062 146.230469 206.367188 148.417969 206.367188 151.121094 L 206.367188 165.5 C 206.367188 168.199219 204.164062 170.390625 201.449219 170.390625 L 98.917969 170.390625 C 96.207031 170.390625 94.003906 168.199219 94.003906 165.5 L 94.003906 151.121094 C 94.003906 148.417969 96.207031 146.230469 98.917969 146.230469 L 201.449219 146.230469 M 201.449219 138.953125 L 98.917969 138.953125 C 92.179688 138.953125 86.695312 144.410156 86.695312 151.121094 L 86.695312 165.5 C 86.695312 172.210938 92.179688 177.667969 98.917969 177.667969 L 201.449219 177.667969 C 208.191406 177.667969 213.671875 172.210938 213.671875 165.5 L 213.671875 151.121094 C 213.675781 144.410156 208.191406 138.953125 201.449219 138.953125 Z M 201.449219 138.953125 " fill-opacity="1" fill-rule="nonzero"/></g><path fill="#eddecd" d="M 118.78125 146.230469 L 98.917969 146.230469 C 96.207031 146.230469 94.003906 148.417969 94.003906 151.121094 L 94.003906 165.5 C 94.003906 168.199219 96.207031 170.390625 98.917969 170.390625 L 118.78125 170.390625 Z M 118.78125 146.230469 " fill-opacity="1" fill-rule="nonzero"/><path fill="#864a3c" d="M 201.449219 146.230469 L 170.097656 146.230469 L 170.097656 170.390625 L 201.449219 170.390625 C 204.164062 170.390625 206.367188 168.199219 206.367188 165.5 L 206.367188 151.121094 C 206.367188 148.417969 204.164062 146.230469 201.449219 146.230469 Z M 201.449219 146.230469 " fill-opacity="1" fill-rule="nonzero"/><path fill="#eddecd" d="M 112.601562 288.648438 C 110.582031 288.648438 108.945312 287.015625 108.945312 285.007812 L 108.945312 273.742188 C 108.945312 271.730469 110.582031 270.101562 112.601562 270.101562 L 187.679688 270.101562 C 189.699219 270.101562 191.332031 271.730469 191.332031 273.742188 L 191.332031 285.007812 C 191.332031 287.015625 189.699219 288.648438 187.679688 288.648438 Z M 112.601562 288.648438 " fill-opacity="1" fill-rule="nonzero"/><g clip-path="url(#id4)"><path fill="#4d2820" d="M 187.679688 273.742188 L 187.679688 285.007812 L 112.601562 285.007812 L 112.601562 273.742188 L 187.679688 273.742188 M 187.679688 266.464844 L 112.601562 266.464844 C 108.5625 266.464844 105.292969 269.722656 105.292969 273.742188 L 105.292969 285.007812 C 105.292969 289.027344 108.5625 292.285156 112.601562 292.285156 L 187.679688 292.285156 C 191.714844 292.285156 194.988281 289.027344 194.988281 285.007812 L 194.988281 273.742188 C 194.988281 269.722656 191.714844 266.464844 187.679688 266.464844 Z M 187.679688 266.464844 " fill-opacity="1" fill-rule="nonzero"/></g><path fill="#864a3c" d="M 170.097656 273.742188 L 187.679688 273.742188 L 187.679688 285.007812 L 170.097656 285.007812 Z M 170.097656 273.742188 " fill-opacity="1" fill-rule="nonzero"/><path fill="#eddecd" d="M 112.601562 273.742188 L 118.78125 273.742188 L 118.78125 285.007812 L 112.601562 285.007812 Z M 112.601562 273.742188 " fill-opacity="1" fill-rule="nonzero"/><path fill="#eddecd" d="M 150.25 241.980469 C 138.71875 241.980469 129.335938 232.636719 129.335938 221.15625 C 129.335938 209.671875 138.71875 200.332031 150.25 200.332031 C 161.78125 200.332031 171.164062 209.671875 171.164062 221.15625 C 171.164062 232.636719 161.78125 241.980469 150.25 241.980469 Z M 150.25 241.980469 " fill-opacity="1" fill-rule="nonzero"/><path fill="#4d2820" d="M 150.25 203.96875 C 159.78125 203.96875 167.507812 211.664062 167.507812 221.15625 C 167.507812 230.644531 159.78125 238.339844 150.25 238.339844 C 140.714844 238.339844 132.992188 230.644531 132.992188 221.15625 C 132.992188 211.664062 140.714844 203.96875 150.25 203.96875 M 150.25 196.691406 C 136.703125 196.691406 125.683594 207.667969 125.683594 221.15625 C 125.683594 234.644531 136.703125 245.617188 150.25 245.617188 C 163.796875 245.617188 174.816406 234.644531 174.816406 221.15625 C 174.816406 207.667969 163.796875 196.691406 150.25 196.691406 Z M 150.25 196.691406 " fill-opacity="1" fill-rule="nonzero"/><g fill="#faf2e9" fill-opacity="1"><g transform="translate(49.820292, 151.610065)"><g><path d="M 3.421875 -9.546875 C 2.660156 -7.171875 1.332031 -5.488281 -0.5625 -4.5 C -2.46875 -3.507812 -4.613281 -3.394531 -7 -4.15625 L -21.328125 -8.71875 C -23.722656 -9.488281 -25.398438 -10.820312 -26.359375 -12.71875 C -27.316406 -14.613281 -27.414062 -16.75 -26.65625 -19.125 C -25.894531 -21.53125 -24.570312 -23.238281 -22.6875 -24.25 C -20.800781 -25.257812 -18.660156 -25.378906 -16.265625 -24.609375 L -15.75 -24.453125 C -15.613281 -24.410156 -15.503906 -24.320312 -15.421875 -24.1875 C -15.335938 -24.050781 -15.320312 -23.914062 -15.375 -23.78125 L -16.453125 -19.8125 C -16.566406 -19.476562 -16.789062 -19.367188 -17.125 -19.484375 L -18.171875 -19.8125 C -19.148438 -20.125 -20.035156 -20.09375 -20.828125 -19.71875 C -21.617188 -19.351562 -22.160156 -18.707031 -22.453125 -17.78125 C -22.734375 -16.894531 -22.65625 -16.070312 -22.21875 -15.3125 C -21.789062 -14.5625 -21.085938 -14.03125 -20.109375 -13.71875 L -5.0625 -8.921875 C -4.09375 -8.617188 -3.207031 -8.648438 -2.40625 -9.015625 C -1.613281 -9.378906 -1.078125 -10.003906 -0.796875 -10.890625 C -0.503906 -11.816406 -0.578125 -12.660156 -1.015625 -13.421875 C -1.453125 -14.179688 -2.15625 -14.710938 -3.125 -15.015625 L -4.1875 -15.359375 C -4.320312 -15.398438 -4.421875 -15.484375 -4.484375 -15.609375 C -4.546875 -15.742188 -4.554688 -15.878906 -4.515625 -16.015625 L -3.109375 -19.859375 C -3.054688 -19.992188 -2.96875 -20.097656 -2.84375 -20.171875 C -2.71875 -20.242188 -2.582031 -20.253906 -2.4375 -20.203125 L -1.9375 -20.046875 C 0.445312 -19.285156 2.125 -17.945312 3.09375 -16.03125 C 4.070312 -14.113281 4.179688 -11.953125 3.421875 -9.546875 Z M 3.421875 -9.546875 "/></g></g></g><g fill="#faf2e9" fill-opacity="1"><g transform="translate(56.270067, 131.573509)"><g><path d="M 5.375 -8.765625 C 4.132812 -6.566406 2.460938 -5.171875 0.359375 -4.578125 C -1.734375 -3.992188 -3.875 -4.320312 -6.0625 -5.5625 L -18.953125 -12.875 C -21.148438 -14.113281 -22.53125 -15.78125 -23.09375 -17.875 C -23.65625 -19.976562 -23.316406 -22.128906 -22.078125 -24.328125 C -20.828125 -26.523438 -19.15625 -27.921875 -17.0625 -28.515625 C -14.96875 -29.117188 -12.820312 -28.800781 -10.625 -27.5625 L 2.265625 -20.25 C 4.453125 -19.007812 5.828125 -17.332031 6.390625 -15.21875 C 6.960938 -13.113281 6.625 -10.960938 5.375 -8.765625 Z M 1.53125 -10.9375 C 2.019531 -11.800781 2.117188 -12.671875 1.828125 -13.546875 C 1.535156 -14.429688 0.90625 -15.148438 -0.0625 -15.703125 L -13.328125 -23.234375 C -14.304688 -23.785156 -15.25 -23.957031 -16.15625 -23.75 C -17.0625 -23.550781 -17.757812 -23.019531 -18.25 -22.15625 C -18.738281 -21.28125 -18.832031 -20.410156 -18.53125 -19.546875 C -18.226562 -18.691406 -17.585938 -17.988281 -16.609375 -17.4375 L -3.34375 -9.90625 C -2.375 -9.351562 -1.441406 -9.164062 -0.546875 -9.34375 C 0.347656 -9.53125 1.039062 -10.0625 1.53125 -10.9375 Z M 1.53125 -10.9375 "/></g></g></g><g fill="#faf2e9" fill-opacity="1"><g transform="translate(66.968522, 112.94936)"><g><path d="M -15.78125 -28.8125 C -14.757812 -29.976562 -13.566406 -30.753906 -12.203125 -31.140625 C -10.835938 -31.535156 -9.414062 -31.519531 -7.9375 -31.09375 C -6.46875 -30.675781 -5.066406 -29.882812 -3.734375 -28.71875 C -1.765625 -26.96875 -0.632812 -25.035156 -0.34375 -22.921875 C -0.0625 -20.804688 -0.675781 -18.890625 -2.1875 -17.171875 L -4.671875 -14.359375 C -4.765625 -14.253906 -4.753906 -14.148438 -4.640625 -14.046875 L 4.546875 -5.953125 C 4.648438 -5.847656 4.703125 -5.722656 4.703125 -5.578125 C 4.710938 -5.429688 4.671875 -5.300781 4.578125 -5.1875 L 1.890625 -2.140625 C 1.796875 -2.035156 1.675781 -1.976562 1.53125 -1.96875 C 1.382812 -1.957031 1.257812 -2.003906 1.15625 -2.109375 L -21.21875 -21.859375 C -21.332031 -21.953125 -21.394531 -22.070312 -21.40625 -22.21875 C -21.414062 -22.363281 -21.375 -22.488281 -21.28125 -22.59375 Z M -5.921875 -19 C -5.203125 -19.8125 -4.9375 -20.738281 -5.125 -21.78125 C -5.320312 -22.832031 -5.957031 -23.835938 -7.03125 -24.796875 C -8.132812 -25.765625 -9.226562 -26.285156 -10.3125 -26.359375 C -11.40625 -26.441406 -12.3125 -26.078125 -13.03125 -25.265625 L -14.78125 -23.28125 C -14.875 -23.175781 -14.863281 -23.078125 -14.75 -22.984375 L -7.984375 -17 C -7.867188 -16.90625 -7.765625 -16.910156 -7.671875 -17.015625 Z M -5.921875 -19 "/></g></g></g><g fill="#faf2e9" fill-opacity="1"><g transform="translate(80.990554, 97.216879)"><g><path d="M 11.921875 -8.921875 C 11.648438 -8.710938 11.398438 -8.726562 11.171875 -8.96875 L 7.734375 -12.171875 C 7.648438 -12.285156 7.539062 -12.289062 7.40625 -12.1875 L 2.25 -8.328125 C 2.113281 -8.222656 2.085938 -8.113281 2.171875 -8 L 4.265625 -3.796875 C 4.429688 -3.515625 4.375 -3.269531 4.09375 -3.0625 L 0.890625 -0.671875 C 0.554688 -0.421875 0.304688 -0.472656 0.140625 -0.828125 L -12.46875 -28.609375 C -12.613281 -28.898438 -12.554688 -29.144531 -12.296875 -29.34375 L -8.5625 -32.140625 C -8.300781 -32.328125 -8.050781 -32.304688 -7.8125 -32.078125 L 15.265625 -12.140625 L 15.375 -11.984375 C 15.53125 -11.773438 15.476562 -11.570312 15.21875 -11.375 Z M 0.140625 -12.03125 C 0.191406 -11.894531 0.289062 -11.882812 0.4375 -12 L 4.359375 -14.9375 C 4.492188 -15.03125 4.515625 -15.128906 4.421875 -15.234375 L -6 -24.875 C -6.0625 -24.914062 -6.113281 -24.914062 -6.15625 -24.875 C -6.207031 -24.84375 -6.222656 -24.789062 -6.203125 -24.71875 Z M 0.140625 -12.03125 "/></g></g></g><g fill="#faf2e9" fill-opacity="1"><g transform="translate(98.772744, 84.641257)"><g/></g></g><g fill="#faf2e9" fill-opacity="1"><g transform="translate(107.97136, 79.452453)"><g><path d="M 0.671875 -32.859375 C 2.148438 -33.347656 3.578125 -33.421875 4.953125 -33.078125 C 6.328125 -32.742188 7.546875 -32.023438 8.609375 -30.921875 C 9.679688 -29.828125 10.5 -28.441406 11.0625 -26.765625 C 11.90625 -24.265625 11.925781 -22.019531 11.125 -20.03125 C 10.320312 -18.050781 8.835938 -16.695312 6.671875 -15.96875 L 3.109375 -14.765625 C 2.972656 -14.722656 2.925781 -14.632812 2.96875 -14.5 L 6.890625 -2.890625 C 6.941406 -2.753906 6.929688 -2.617188 6.859375 -2.484375 C 6.796875 -2.347656 6.695312 -2.257812 6.5625 -2.21875 L 2.703125 -0.921875 C 2.566406 -0.867188 2.4375 -0.875 2.3125 -0.9375 C 2.1875 -1.007812 2.097656 -1.113281 2.046875 -1.25 L -7.5 -29.53125 C -7.550781 -29.664062 -7.546875 -29.796875 -7.484375 -29.921875 C -7.421875 -30.054688 -7.320312 -30.148438 -7.1875 -30.203125 Z M 4.3125 -19.421875 C 5.34375 -19.773438 6.035156 -20.453125 6.390625 -21.453125 C 6.753906 -22.453125 6.707031 -23.632812 6.25 -25 C 5.78125 -26.394531 5.09375 -27.394531 4.1875 -28 C 3.28125 -28.613281 2.3125 -28.742188 1.28125 -28.390625 L -1.21875 -27.546875 C -1.351562 -27.503906 -1.394531 -27.414062 -1.34375 -27.28125 L 1.546875 -18.71875 C 1.585938 -18.582031 1.675781 -18.535156 1.8125 -18.578125 Z M 4.3125 -19.421875 "/></g></g></g><g fill="#faf2e9" fill-opacity="1"><g transform="translate(127.95171, 72.79131)"><g><path d="M 14.484375 -1.734375 C 14.203125 -1.703125 14 -1.828125 13.875 -2.109375 L 8.625 -14.21875 C 8.5625 -14.332031 8.484375 -14.382812 8.390625 -14.375 L 6.078125 -14.09375 C 5.941406 -14.070312 5.882812 -13.988281 5.90625 -13.84375 L 7.390625 -1.421875 C 7.410156 -1.273438 7.375 -1.144531 7.28125 -1.03125 C 7.1875 -0.914062 7.066406 -0.847656 6.921875 -0.828125 L 2.890625 -0.34375 C 2.742188 -0.320312 2.613281 -0.359375 2.5 -0.453125 C 2.382812 -0.546875 2.316406 -0.664062 2.296875 -0.8125 L -1.25 -30.390625 C -1.269531 -30.535156 -1.234375 -30.664062 -1.140625 -30.78125 C -1.046875 -30.894531 -0.925781 -30.960938 -0.78125 -30.984375 L 7.453125 -31.96875 C 8.992188 -32.15625 10.398438 -31.945312 11.671875 -31.34375 C 12.941406 -30.738281 13.984375 -29.796875 14.796875 -28.515625 C 15.609375 -27.234375 16.117188 -25.71875 16.328125 -23.96875 C 16.546875 -22.15625 16.382812 -20.550781 15.84375 -19.15625 C 15.300781 -17.757812 14.445312 -16.660156 13.28125 -15.859375 C 13.15625 -15.816406 13.117188 -15.722656 13.171875 -15.578125 L 19.046875 -2.90625 C 19.085938 -2.851562 19.113281 -2.78125 19.125 -2.6875 C 19.15625 -2.425781 19.007812 -2.28125 18.6875 -2.25 Z M 4.5 -27.1875 C 4.363281 -27.164062 4.304688 -27.078125 4.328125 -26.921875 L 5.375 -18.21875 C 5.394531 -18.070312 5.472656 -18.007812 5.609375 -18.03125 L 8.28125 -18.34375 C 9.332031 -18.46875 10.132812 -18.976562 10.6875 -19.875 C 11.25 -20.78125 11.445312 -21.929688 11.28125 -23.328125 C 11.101562 -24.734375 10.632812 -25.8125 9.875 -26.5625 C 9.125 -27.3125 8.222656 -27.625 7.171875 -27.5 Z M 4.5 -27.1875 "/></g></g></g><g fill="#faf2e9" fill-opacity="1"><g transform="translate(149.765523, 70.733901)"><g><path d="M 2.90625 0.125 C 2.757812 0.125 2.632812 0.0703125 2.53125 -0.03125 C 2.4375 -0.144531 2.390625 -0.273438 2.390625 -0.421875 L 3.703125 -30.1875 C 3.710938 -30.332031 3.769531 -30.453125 3.875 -30.546875 C 3.988281 -30.648438 4.117188 -30.703125 4.265625 -30.703125 L 8.328125 -30.515625 C 8.472656 -30.515625 8.59375 -30.457031 8.6875 -30.34375 C 8.789062 -30.238281 8.835938 -30.113281 8.828125 -29.96875 L 7.515625 -0.203125 C 7.515625 -0.0546875 7.457031 0.0625 7.34375 0.15625 C 7.238281 0.257812 7.113281 0.3125 6.96875 0.3125 Z M 2.90625 0.125 "/></g></g></g><g fill="#faf2e9" fill-opacity="1"><g transform="translate(161.089313, 70.742511)"><g><path d="M 22.53125 -26.1875 C 22.71875 -26.394531 22.957031 -26.46875 23.25 -26.40625 L 27.203125 -25.515625 C 27.347656 -25.484375 27.457031 -25.398438 27.53125 -25.265625 C 27.613281 -25.140625 27.632812 -25.007812 27.59375 -24.875 L 21.046875 4.203125 C 21.015625 4.335938 20.9375 4.441406 20.8125 4.515625 C 20.695312 4.597656 20.566406 4.625 20.421875 4.59375 L 16.46875 3.703125 C 16.320312 3.671875 16.207031 3.59375 16.125 3.46875 C 16.050781 3.34375 16.03125 3.210938 16.0625 3.078125 L 20.640625 -17.21875 C 20.671875 -17.332031 20.65625 -17.394531 20.59375 -17.40625 C 20.539062 -17.425781 20.476562 -17.398438 20.40625 -17.328125 L 15.125 -11.359375 C 14.925781 -11.171875 14.769531 -11.085938 14.65625 -11.109375 C 14.550781 -11.140625 14.445312 -11.28125 14.34375 -11.53125 L 12.140625 -19.1875 C 12.097656 -19.28125 12.046875 -19.332031 11.984375 -19.34375 C 11.929688 -19.363281 11.890625 -19.316406 11.859375 -19.203125 L 7.28125 1.09375 C 7.25 1.226562 7.171875 1.335938 7.046875 1.421875 C 6.929688 1.503906 6.800781 1.53125 6.65625 1.5 L 2.71875 0.609375 C 2.570312 0.578125 2.457031 0.5 2.375 0.375 C 2.289062 0.25 2.265625 0.117188 2.296875 -0.015625 L 8.84375 -29.09375 C 8.882812 -29.226562 8.96875 -29.335938 9.09375 -29.421875 C 9.21875 -29.503906 9.351562 -29.53125 9.5 -29.5 L 13.4375 -28.609375 C 13.726562 -28.546875 13.921875 -28.378906 14.015625 -28.109375 L 16.53125 -19.828125 C 16.582031 -19.679688 16.664062 -19.660156 16.78125 -19.765625 Z M 22.53125 -26.1875 "/></g></g></g><g fill="#faf2e9" fill-opacity="1"><g transform="translate(184.818361, 76.364976)"><g><path d="M 13.453125 6.375 C 13.148438 6.21875 13.050781 5.988281 13.15625 5.6875 L 14.375 1.140625 C 14.4375 1.015625 14.390625 0.914062 14.234375 0.84375 L 8.40625 -1.90625 C 8.257812 -1.976562 8.15625 -1.953125 8.09375 -1.828125 L 5.34375 2 C 5.175781 2.269531 4.9375 2.332031 4.625 2.1875 L 1 0.46875 C 0.625 0.289062 0.554688 0.0507812 0.796875 -0.25 L 19.4375 -24.40625 C 19.644531 -24.664062 19.894531 -24.726562 20.1875 -24.59375 L 24.40625 -22.59375 C 24.695312 -22.457031 24.789062 -22.226562 24.6875 -21.90625 L 17.859375 7.8125 L 17.78125 7.96875 C 17.664062 8.207031 17.460938 8.257812 17.171875 8.125 Z M 10.703125 -5.515625 C 10.609375 -5.398438 10.644531 -5.304688 10.8125 -5.234375 L 15.25 -3.140625 C 15.394531 -3.066406 15.488281 -3.097656 15.53125 -3.234375 L 19.171875 -16.921875 C 19.179688 -17.015625 19.160156 -17.070312 19.109375 -17.09375 C 19.054688 -17.125 19 -17.101562 18.9375 -17.03125 Z M 10.703125 -5.515625 "/></g></g></g><g fill="#faf2e9" fill-opacity="1"><g transform="translate(203.768522, 85.400437)"><g><path d="M 6.453125 4.90625 C 6.191406 4.707031 6.140625 4.460938 6.296875 4.171875 L 19.3125 -23.359375 L 19.375 -23.53125 C 19.539062 -23.738281 19.75 -23.742188 20 -23.546875 L 23.546875 -20.859375 C 23.828125 -20.640625 23.882812 -20.394531 23.71875 -20.125 L 13.796875 -1.03125 C 13.765625 -0.9375 13.769531 -0.867188 13.8125 -0.828125 C 13.863281 -0.796875 13.925781 -0.804688 14 -0.859375 L 29.671875 -15.609375 C 29.890625 -15.835938 30.140625 -15.84375 30.421875 -15.625 L 33.859375 -13.015625 C 34.160156 -12.785156 34.164062 -12.546875 33.875 -12.296875 L 10.78125 7.578125 C 10.539062 7.804688 10.289062 7.820312 10.03125 7.625 Z M 6.453125 4.90625 "/></g></g></g><g fill="#faf2e9" fill-opacity="1"><g transform="translate(220.941109, 98.674139)"><g><path d="M 32 -4.328125 C 31.894531 -4.234375 31.769531 -4.191406 31.625 -4.203125 C 31.488281 -4.210938 31.375 -4.269531 31.28125 -4.375 L 25.015625 -11.5625 C 24.921875 -11.664062 24.8125 -11.664062 24.6875 -11.5625 L 18.40625 -6.09375 C 18.300781 -6 18.296875 -5.898438 18.390625 -5.796875 L 22.109375 -1.53125 C 22.203125 -1.425781 22.242188 -1.300781 22.234375 -1.15625 C 22.222656 -1.007812 22.160156 -0.890625 22.046875 -0.796875 L 19.5 1.4375 C 19.382812 1.53125 19.253906 1.570312 19.109375 1.5625 C 18.960938 1.550781 18.84375 1.492188 18.75 1.390625 L 15.03125 -2.875 C 14.9375 -2.976562 14.832031 -2.984375 14.71875 -2.890625 L 8.40625 2.625 C 8.300781 2.71875 8.296875 2.816406 8.390625 2.921875 L 14.65625 10.109375 C 14.75 10.210938 14.789062 10.335938 14.78125 10.484375 C 14.769531 10.628906 14.707031 10.75 14.59375 10.84375 L 12.078125 13.046875 C 11.960938 13.140625 11.832031 13.179688 11.6875 13.171875 C 11.539062 13.160156 11.421875 13.101562 11.328125 13 L 1.90625 2.1875 C 1.8125 2.082031 1.769531 1.957031 1.78125 1.8125 C 1.789062 1.664062 1.851562 1.546875 1.96875 1.453125 L 24.4375 -18.125 C 24.539062 -18.21875 24.664062 -18.257812 24.8125 -18.25 C 24.957031 -18.238281 25.078125 -18.179688 25.171875 -18.078125 L 34.59375 -7.265625 C 34.6875 -7.160156 34.726562 -7.035156 34.71875 -6.890625 C 34.707031 -6.742188 34.648438 -6.625 34.546875 -6.53125 Z M 32 -4.328125 "/></g></g></g><g fill="#faf2e9" fill-opacity="1"><g transform="translate(234.154598, 113.901669)"><g><path d="M 7.171875 12.703125 C 7.035156 12.453125 7.066406 12.210938 7.265625 11.984375 L 16.453125 2.5 C 16.523438 2.394531 16.535156 2.300781 16.484375 2.21875 L 15.34375 0.1875 C 15.269531 0.0625 15.171875 0.0351562 15.046875 0.109375 L 4.15625 6.265625 C 4.019531 6.335938 3.878906 6.351562 3.734375 6.3125 C 3.597656 6.269531 3.492188 6.1875 3.421875 6.0625 L 1.4375 2.53125 C 1.363281 2.40625 1.34375 2.269531 1.375 2.125 C 1.414062 1.976562 1.503906 1.867188 1.640625 1.796875 L 27.578125 -12.859375 C 27.703125 -12.929688 27.832031 -12.945312 27.96875 -12.90625 C 28.113281 -12.863281 28.222656 -12.78125 28.296875 -12.65625 L 32.375 -5.4375 C 33.132812 -4.082031 33.484375 -2.703125 33.421875 -1.296875 C 33.359375 0.109375 32.890625 1.4375 32.015625 2.6875 C 31.148438 3.9375 29.953125 4.992188 28.421875 5.859375 C 26.835938 6.753906 25.289062 7.21875 23.78125 7.25 C 22.28125 7.289062 20.9375 6.925781 19.75 6.15625 C 19.65625 6.070312 19.550781 6.078125 19.4375 6.171875 L 10.015625 16.46875 C 9.984375 16.519531 9.925781 16.570312 9.84375 16.625 C 9.613281 16.75 9.421875 16.671875 9.265625 16.390625 Z M 26.828125 -6.296875 C 26.753906 -6.421875 26.648438 -6.441406 26.515625 -6.359375 L 18.875 -2.0625 C 18.75 -1.988281 18.722656 -1.890625 18.796875 -1.765625 L 20.125 0.578125 C 20.632812 1.492188 21.410156 2.035156 22.453125 2.203125 C 23.503906 2.378906 24.640625 2.117188 25.859375 1.421875 C 27.097656 0.722656 27.914062 -0.113281 28.3125 -1.09375 C 28.71875 -2.082031 28.664062 -3.035156 28.15625 -3.953125 Z M 26.828125 -6.296875 "/></g></g></g><g fill="#faf2e9" fill-opacity="1"><g transform="translate(244.513406, 132.441211)"><g><path d="M 4.515625 14.1875 C 4.410156 13.863281 4.507812 13.640625 4.8125 13.515625 L 8.96875 11.296875 C 9.101562 11.253906 9.144531 11.148438 9.09375 10.984375 L 7.140625 4.859375 C 7.085938 4.691406 6.992188 4.628906 6.859375 4.671875 L 2.1875 5.28125 C 1.863281 5.34375 1.648438 5.207031 1.546875 4.875 L 0.34375 1.0625 C 0.207031 0.664062 0.335938 0.445312 0.734375 0.40625 L 31.109375 -2.421875 C 31.429688 -2.453125 31.644531 -2.3125 31.75 -2 L 33.171875 2.453125 C 33.265625 2.753906 33.160156 2.976562 32.859375 3.125 L 6.453125 18.390625 L 6.28125 18.4375 C 6.03125 18.519531 5.859375 18.410156 5.765625 18.109375 Z M 11.328125 4.0625 C 11.179688 4.082031 11.132812 4.175781 11.1875 4.34375 L 12.671875 9.03125 C 12.722656 9.1875 12.816406 9.226562 12.953125 9.15625 L 25.453125 2.5 C 25.523438 2.4375 25.550781 2.375 25.53125 2.3125 C 25.519531 2.257812 25.46875 2.234375 25.375 2.234375 Z M 11.328125 4.0625 "/></g></g></g><g fill="#faf2e9" fill-opacity="1"><g transform="translate(21.089364, 336.16738)"><g><path d="M 6.359375 -23.515625 C 8.148438 -23.515625 9.472656 -22.984375 10.328125 -21.921875 C 11.179688 -20.859375 11.609375 -19.4375 11.609375 -17.65625 L 11.609375 -15.5625 L 9.140625 -15.5625 L 9.140625 -17.796875 C 9.140625 -18.859375 8.921875 -19.679688 8.484375 -20.265625 C 8.054688 -20.859375 7.367188 -21.15625 6.421875 -21.15625 C 5.484375 -21.15625 4.789062 -20.859375 4.34375 -20.265625 C 3.90625 -19.679688 3.6875 -18.859375 3.6875 -17.796875 L 3.6875 -5.484375 C 3.6875 -4.421875 3.90625 -3.59375 4.34375 -3 C 4.789062 -2.414062 5.484375 -2.125 6.421875 -2.125 C 7.367188 -2.125 8.054688 -2.414062 8.484375 -3 C 8.921875 -3.59375 9.140625 -4.421875 9.140625 -5.484375 L 9.140625 -8.515625 L 11.609375 -8.515625 L 11.609375 -5.625 C 11.609375 -3.84375 11.179688 -2.421875 10.328125 -1.359375 C 9.472656 -0.296875 8.148438 0.234375 6.359375 0.234375 C 4.578125 0.234375 3.257812 -0.296875 2.40625 -1.359375 C 1.550781 -2.421875 1.125 -3.84375 1.125 -5.625 L 1.125 -17.65625 C 1.125 -18.550781 1.226562 -19.359375 1.4375 -20.078125 C 1.65625 -20.796875 1.976562 -21.410156 2.40625 -21.921875 C 2.84375 -22.429688 3.382812 -22.820312 4.03125 -23.09375 C 4.6875 -23.375 5.460938 -23.515625 6.359375 -23.515625 Z M 6.359375 -23.515625 "/></g></g></g><g fill="#faf2e9" fill-opacity="1"><g transform="translate(37.052672, 336.16738)"><g><path d="M 3.953125 -4.6875 L 3.0625 0 L 0.671875 0 L 5.125 -23.28125 L 8.875 -23.28125 L 13.34375 0 L 10.75 0 L 9.84375 -4.6875 Z M 4.296875 -6.921875 L 9.484375 -6.921875 L 6.859375 -20.359375 Z M 4.296875 -6.921875 "/></g></g></g><g fill="#faf2e9" fill-opacity="1"><g transform="translate(54.412667, 336.16738)"><g><path d="M 9.28125 -12.4375 L 9.28125 -10.078125 L 3.921875 -10.078125 L 3.921875 0 L 1.328125 0 L 1.328125 -23.28125 L 10.578125 -23.28125 L 10.578125 -20.921875 L 3.921875 -20.921875 L 3.921875 -12.4375 Z M 9.28125 -12.4375 "/></g></g></g><g fill="#faf2e9" fill-opacity="1"><g transform="translate(69.045816, 336.16738)"><g><path d="M 9.421875 -28.015625 L 6.328125 -24.578125 L 4.53125 -24.578125 L 6.859375 -28.015625 Z M 9.609375 -12.96875 L 9.609375 -10.640625 L 3.921875 -10.640625 L 3.921875 -2.359375 L 10.90625 -2.359375 L 10.90625 0 L 1.328125 0 L 1.328125 -23.28125 L 10.90625 -23.28125 L 10.90625 -20.921875 L 3.921875 -20.921875 L 3.921875 -12.96875 Z M 9.609375 -12.96875 "/></g></g></g><g fill="#faf2e9" fill-opacity="1"><g transform="translate(84.344058, 336.16738)"><g/></g></g><g fill="#faf2e9" fill-opacity="1"><g transform="translate(92.825181, 336.16738)"><g><path d="M 6.78125 -23.28125 C 8.601562 -23.28125 9.941406 -22.765625 10.796875 -21.734375 C 11.648438 -20.703125 12.078125 -19.289062 12.078125 -17.5 L 12.078125 -5.75 C 12.078125 -3.957031 11.648438 -2.550781 10.796875 -1.53125 C 9.941406 -0.507812 8.601562 0 6.78125 0 L 1.328125 0 L 1.328125 -23.28125 Z M 6.75 -2.359375 C 7.6875 -2.359375 8.378906 -2.640625 8.828125 -3.203125 C 9.285156 -3.773438 9.515625 -4.59375 9.515625 -5.65625 L 9.515625 -17.625 C 9.515625 -18.695312 9.285156 -19.515625 8.828125 -20.078125 C 8.378906 -20.640625 7.675781 -20.921875 6.71875 -20.921875 L 3.921875 -20.921875 L 3.921875 -2.359375 Z M 6.75 -2.359375 "/></g></g></g><g fill="#faf2e9" fill-opacity="1"><g transform="translate(109.320559, 336.16738)"><g><path d="M 9.609375 -12.96875 L 9.609375 -10.640625 L 3.921875 -10.640625 L 3.921875 -2.359375 L 10.90625 -2.359375 L 10.90625 0 L 1.328125 0 L 1.328125 -23.28125 L 10.90625 -23.28125 L 10.90625 -20.921875 L 3.921875 -20.921875 L 3.921875 -12.96875 Z M 9.609375 -12.96875 "/></g></g></g><g fill="#faf2e9" fill-opacity="1"><g transform="translate(124.618801, 336.16738)"><g/></g></g><g fill="#faf2e9" fill-opacity="1"><g transform="translate(133.099924, 336.16738)"><g><path d="M 3.296875 -23.28125 L 7.078125 -3.03125 L 10.84375 -23.28125 L 13.234375 -23.28125 L 8.875 0 L 5.0625 0 L 0.671875 -23.28125 Z M 3.296875 -23.28125 "/></g></g></g><g fill="#faf2e9" fill-opacity="1"><g transform="translate(150.3269, 336.16738)"><g><path d="M 9.609375 -12.96875 L 9.609375 -10.640625 L 3.921875 -10.640625 L 3.921875 -2.359375 L 10.90625 -2.359375 L 10.90625 0 L 1.328125 0 L 1.328125 -23.28125 L 10.90625 -23.28125 L 10.90625 -20.921875 L 3.921875 -20.921875 L 3.921875 -12.96875 Z M 9.609375 -12.96875 "/></g></g></g><g fill="#faf2e9" fill-opacity="1"><g transform="translate(165.625142, 336.16738)"><g><path d="M 6.359375 -23.515625 C 8.148438 -23.515625 9.472656 -22.984375 10.328125 -21.921875 C 11.179688 -20.859375 11.609375 -19.4375 11.609375 -17.65625 L 11.609375 -15.5625 L 9.140625 -15.5625 L 9.140625 -17.796875 C 9.140625 -18.859375 8.921875 -19.679688 8.484375 -20.265625 C 8.054688 -20.859375 7.367188 -21.15625 6.421875 -21.15625 C 5.484375 -21.15625 4.789062 -20.859375 4.34375 -20.265625 C 3.90625 -19.679688 3.6875 -18.859375 3.6875 -17.796875 L 3.6875 -5.484375 C 3.6875 -4.421875 3.90625 -3.59375 4.34375 -3 C 4.789062 -2.414062 5.484375 -2.125 6.421875 -2.125 C 7.367188 -2.125 8.054688 -2.414062 8.484375 -3 C 8.921875 -3.59375 9.140625 -4.421875 9.140625 -5.484375 L 9.140625 -8.515625 L 11.609375 -8.515625 L 11.609375 -5.625 C 11.609375 -3.84375 11.179688 -2.421875 10.328125 -1.359375 C 9.472656 -0.296875 8.148438 0.234375 6.359375 0.234375 C 4.578125 0.234375 3.257812 -0.296875 2.40625 -1.359375 C 1.550781 -2.421875 1.125 -3.84375 1.125 -5.625 L 1.125 -17.65625 C 1.125 -18.550781 1.226562 -19.359375 1.4375 -20.078125 C 1.65625 -20.796875 1.976562 -21.410156 2.40625 -21.921875 C 2.84375 -22.429688 3.382812 -22.820312 4.03125 -23.09375 C 4.6875 -23.375 5.460938 -23.515625 6.359375 -23.515625 Z M 6.359375 -23.515625 "/></g></g></g><g fill="#faf2e9" fill-opacity="1"><g transform="translate(181.588443, 336.16738)"><g><path d="M 3.921875 -23.28125 L 3.921875 0 L 1.328125 0 L 1.328125 -23.28125 Z M 3.921875 -23.28125 "/></g></g></g><g fill="#faf2e9" fill-opacity="1"><g transform="translate(190.169332, 336.16738)"><g><path d="M 3.625 0 L 1.296875 0 L 1.296875 -23.28125 L 4.59375 -23.28125 L 9.984375 -6.453125 L 9.984375 -23.28125 L 12.28125 -23.28125 L 12.28125 0 L 9.578125 0 L 3.625 -18.828125 Z M 3.625 0 "/></g></g></g><g fill="#faf2e9" fill-opacity="1"><g transform="translate(207.09701, 336.16738)"><g><path d="M 6.78125 -23.28125 C 8.601562 -23.28125 9.941406 -22.765625 10.796875 -21.734375 C 11.648438 -20.703125 12.078125 -19.289062 12.078125 -17.5 L 12.078125 -5.75 C 12.078125 -3.957031 11.648438 -2.550781 10.796875 -1.53125 C 9.941406 -0.507812 8.601562 0 6.78125 0 L 1.328125 0 L 1.328125 -23.28125 Z M 6.75 -2.359375 C 7.6875 -2.359375 8.378906 -2.640625 8.828125 -3.203125 C 9.285156 -3.773438 9.515625 -4.59375 9.515625 -5.65625 L 9.515625 -17.625 C 9.515625 -18.695312 9.285156 -19.515625 8.828125 -20.078125 C 8.378906 -20.640625 7.675781 -20.921875 6.71875 -20.921875 L 3.921875 -20.921875 L 3.921875 -2.359375 Z M 6.75 -2.359375 "/></g></g></g><g fill="#faf2e9" fill-opacity="1"><g transform="translate(223.592388, 336.16738)"><g><path d="M 3.953125 -4.6875 L 3.0625 0 L 0.671875 0 L 5.125 -23.28125 L 8.875 -23.28125 L 13.34375 0 L 10.75 0 L 9.84375 -4.6875 Z M 4.296875 -6.921875 L 9.484375 -6.921875 L 6.859375 -20.359375 Z M 4.296875 -6.921875 "/></g></g></g><g fill="#faf2e9" fill-opacity="1"><g transform="translate(240.952385, 336.16738)"><g><path d="M 6.515625 -23.28125 C 8.359375 -23.28125 9.679688 -22.828125 10.484375 -21.921875 C 11.296875 -21.015625 11.703125 -19.695312 11.703125 -17.96875 L 11.703125 -16.0625 C 11.703125 -14.78125 11.46875 -13.738281 11 -12.9375 C 10.539062 -12.144531 9.8125 -11.59375 8.8125 -11.28125 C 9.875 -10.96875 10.628906 -10.394531 11.078125 -9.5625 C 11.523438 -8.726562 11.75 -7.679688 11.75 -6.421875 L 11.75 -2.796875 C 11.75 -2.285156 11.769531 -1.789062 11.8125 -1.3125 C 11.851562 -0.832031 11.984375 -0.394531 12.203125 0 L 9.578125 0 C 9.421875 -0.332031 9.304688 -0.691406 9.234375 -1.078125 C 9.171875 -1.460938 9.140625 -2.046875 9.140625 -2.828125 L 9.140625 -6.484375 C 9.140625 -7.796875 8.847656 -8.703125 8.265625 -9.203125 C 7.679688 -9.703125 6.84375 -9.953125 5.75 -9.953125 L 3.921875 -9.953125 L 3.921875 0 L 1.328125 0 L 1.328125 -23.28125 Z M 5.859375 -12.3125 C 6.898438 -12.3125 7.707031 -12.523438 8.28125 -12.953125 C 8.851562 -13.390625 9.140625 -14.238281 9.140625 -15.5 L 9.140625 -17.734375 C 9.140625 -18.796875 8.9375 -19.59375 8.53125 -20.125 C 8.125 -20.65625 7.429688 -20.921875 6.453125 -20.921875 L 3.921875 -20.921875 L 3.921875 -12.3125 Z M 5.859375 -12.3125 "/></g></g></g><g fill="#faf2e9" fill-opacity="1"><g transform="translate(257.381252, 336.16738)"><g><path d="M 3.921875 -23.28125 L 3.921875 0 L 1.328125 0 L 1.328125 -23.28125 Z M 3.921875 -23.28125 "/></g></g></g><g fill="#faf2e9" fill-opacity="1"><g transform="translate(265.962141, 336.16738)"><g><path d="M 1.125 -17.65625 C 1.125 -19.457031 1.5625 -20.882812 2.4375 -21.9375 C 3.320312 -22.988281 4.660156 -23.515625 6.453125 -23.515625 C 8.242188 -23.515625 9.582031 -22.988281 10.46875 -21.9375 C 11.363281 -20.882812 11.8125 -19.457031 11.8125 -17.65625 L 11.8125 -5.625 C 11.8125 -3.84375 11.363281 -2.421875 10.46875 -1.359375 C 9.582031 -0.296875 8.242188 0.234375 6.453125 0.234375 C 4.660156 0.234375 3.320312 -0.296875 2.4375 -1.359375 C 1.5625 -2.421875 1.125 -3.84375 1.125 -5.625 Z M 3.6875 -5.484375 C 3.6875 -4.421875 3.914062 -3.59375 4.375 -3 C 4.832031 -2.414062 5.523438 -2.125 6.453125 -2.125 C 7.410156 -2.125 8.109375 -2.414062 8.546875 -3 C 8.992188 -3.59375 9.21875 -4.421875 9.21875 -5.484375 L 9.21875 -17.796875 C 9.21875 -18.859375 8.992188 -19.679688 8.546875 -20.265625 C 8.109375 -20.859375 7.410156 -21.15625 6.453125 -21.15625 C 5.523438 -21.15625 4.832031 -20.859375 4.375 -20.265625 C 3.914062 -19.679688 3.6875 -18.859375 3.6875 -17.796875 Z M 3.6875 -5.484375 "/></g></g></g><g fill="#faf2e9" fill-opacity="1"><g transform="translate(18.646542, 223.335196)"><g><path d="M 0.765625 0 C 0.722656 0 0.6875 -0.015625 0.65625 -0.046875 C 0.625 -0.078125 0.609375 -0.117188 0.609375 -0.171875 L 0.609375 -9.4375 C 0.609375 -9.476562 0.625 -9.515625 0.65625 -9.546875 C 0.6875 -9.585938 0.722656 -9.609375 0.765625 -9.609375 L 3.25 -9.609375 C 4.082031 -9.609375 4.75 -9.363281 5.25 -8.875 C 5.757812 -8.394531 6.015625 -7.75 6.015625 -6.9375 L 6.015625 -2.65625 C 6.015625 -1.851562 5.757812 -1.207031 5.25 -0.71875 C 4.75 -0.238281 4.082031 0 3.25 0 Z M 2.53125 -1.734375 C 2.53125 -1.679688 2.554688 -1.65625 2.609375 -1.65625 L 3.21875 -1.671875 C 3.46875 -1.679688 3.671875 -1.785156 3.828125 -1.984375 C 3.984375 -2.191406 4.066406 -2.457031 4.078125 -2.78125 L 4.078125 -6.8125 C 4.078125 -7.164062 4 -7.441406 3.84375 -7.640625 C 3.6875 -7.835938 3.472656 -7.9375 3.203125 -7.9375 L 2.609375 -7.9375 C 2.554688 -7.9375 2.53125 -7.914062 2.53125 -7.875 Z M 2.53125 -1.734375 "/></g></g></g><g fill="#faf2e9" fill-opacity="1"><g transform="translate(25.864663, 223.335196)"><g><path d="M 5.640625 -8.109375 C 5.640625 -8.066406 5.625 -8.023438 5.59375 -7.984375 C 5.5625 -7.953125 5.519531 -7.9375 5.46875 -7.9375 L 2.609375 -7.9375 C 2.554688 -7.9375 2.53125 -7.914062 2.53125 -7.875 L 2.53125 -5.703125 C 2.53125 -5.660156 2.554688 -5.640625 2.609375 -5.640625 L 4.25 -5.640625 C 4.300781 -5.640625 4.34375 -5.625 4.375 -5.59375 C 4.40625 -5.5625 4.421875 -5.519531 4.421875 -5.46875 L 4.421875 -4.140625 C 4.421875 -4.097656 4.40625 -4.0625 4.375 -4.03125 C 4.34375 -4 4.300781 -3.984375 4.25 -3.984375 L 2.609375 -3.984375 C 2.554688 -3.984375 2.53125 -3.957031 2.53125 -3.90625 L 2.53125 -1.734375 C 2.53125 -1.679688 2.554688 -1.65625 2.609375 -1.65625 L 5.46875 -1.65625 C 5.519531 -1.65625 5.5625 -1.640625 5.59375 -1.609375 C 5.625 -1.578125 5.640625 -1.539062 5.640625 -1.5 L 5.640625 -0.171875 C 5.640625 -0.117188 5.625 -0.078125 5.59375 -0.046875 C 5.5625 -0.015625 5.519531 0 5.46875 0 L 0.765625 0 C 0.722656 0 0.6875 -0.015625 0.65625 -0.046875 C 0.625 -0.078125 0.609375 -0.117188 0.609375 -0.171875 L 0.609375 -9.4375 C 0.609375 -9.476562 0.625 -9.515625 0.65625 -9.546875 C 0.6875 -9.585938 0.722656 -9.609375 0.765625 -9.609375 L 5.46875 -9.609375 C 5.519531 -9.609375 5.5625 -9.585938 5.59375 -9.546875 C 5.625 -9.515625 5.640625 -9.476562 5.640625 -9.4375 Z M 5.640625 -8.109375 "/></g></g></g><g fill="#faf2e9" fill-opacity="1"><g transform="translate(32.56132, 223.335196)"><g><path d="M 3.078125 0.109375 C 2.546875 0.109375 2.078125 0.00390625 1.671875 -0.203125 C 1.265625 -0.410156 0.953125 -0.703125 0.734375 -1.078125 C 0.515625 -1.460938 0.40625 -1.90625 0.40625 -2.40625 L 0.40625 -2.796875 C 0.40625 -2.847656 0.421875 -2.890625 0.453125 -2.921875 C 0.484375 -2.953125 0.523438 -2.96875 0.578125 -2.96875 L 2.15625 -2.96875 C 2.195312 -2.96875 2.234375 -2.953125 2.265625 -2.921875 C 2.296875 -2.890625 2.3125 -2.847656 2.3125 -2.796875 L 2.3125 -2.5 C 2.3125 -2.21875 2.382812 -1.988281 2.53125 -1.8125 C 2.675781 -1.632812 2.863281 -1.546875 3.09375 -1.546875 C 3.3125 -1.546875 3.492188 -1.628906 3.640625 -1.796875 C 3.785156 -1.960938 3.859375 -2.175781 3.859375 -2.4375 C 3.859375 -2.71875 3.765625 -2.953125 3.578125 -3.140625 C 3.398438 -3.335938 3.046875 -3.628906 2.515625 -4.015625 C 2.054688 -4.347656 1.679688 -4.640625 1.390625 -4.890625 C 1.109375 -5.148438 0.867188 -5.46875 0.671875 -5.84375 C 0.472656 -6.21875 0.375 -6.648438 0.375 -7.140625 C 0.375 -7.921875 0.613281 -8.546875 1.09375 -9.015625 C 1.582031 -9.484375 2.222656 -9.71875 3.015625 -9.71875 C 3.816406 -9.71875 4.460938 -9.472656 4.953125 -8.984375 C 5.441406 -8.503906 5.6875 -7.867188 5.6875 -7.078125 L 5.6875 -6.75 C 5.6875 -6.707031 5.671875 -6.664062 5.640625 -6.625 C 5.609375 -6.59375 5.570312 -6.578125 5.53125 -6.578125 L 3.953125 -6.578125 C 3.898438 -6.578125 3.859375 -6.59375 3.828125 -6.625 C 3.796875 -6.664062 3.78125 -6.707031 3.78125 -6.75 L 3.78125 -7.125 C 3.78125 -7.40625 3.707031 -7.628906 3.5625 -7.796875 C 3.425781 -7.960938 3.242188 -8.046875 3.015625 -8.046875 C 2.796875 -8.046875 2.617188 -7.96875 2.484375 -7.8125 C 2.347656 -7.65625 2.28125 -7.429688 2.28125 -7.140625 C 2.28125 -6.867188 2.363281 -6.628906 2.53125 -6.421875 C 2.707031 -6.210938 3.050781 -5.921875 3.5625 -5.546875 C 4.132812 -5.117188 4.5625 -4.773438 4.84375 -4.515625 C 5.132812 -4.253906 5.359375 -3.96875 5.515625 -3.65625 C 5.679688 -3.34375 5.765625 -2.96875 5.765625 -2.53125 C 5.765625 -1.71875 5.515625 -1.070312 5.015625 -0.59375 C 4.523438 -0.125 3.878906 0.109375 3.078125 0.109375 Z M 3.078125 0.109375 "/></g></g></g><g fill="#faf2e9" fill-opacity="1"><g transform="translate(22.233171, 237.057949)"><g><path d="M 0.765625 0 C 0.722656 0 0.6875 -0.015625 0.65625 -0.046875 C 0.625 -0.078125 0.609375 -0.117188 0.609375 -0.171875 L 0.609375 -9.4375 C 0.609375 -9.476562 0.625 -9.515625 0.65625 -9.546875 C 0.6875 -9.585938 0.722656 -9.609375 0.765625 -9.609375 L 3.25 -9.609375 C 4.082031 -9.609375 4.75 -9.363281 5.25 -8.875 C 5.757812 -8.394531 6.015625 -7.75 6.015625 -6.9375 L 6.015625 -2.65625 C 6.015625 -1.851562 5.757812 -1.207031 5.25 -0.71875 C 4.75 -0.238281 4.082031 0 3.25 0 Z M 2.53125 -1.734375 C 2.53125 -1.679688 2.554688 -1.65625 2.609375 -1.65625 L 3.21875 -1.671875 C 3.46875 -1.679688 3.671875 -1.785156 3.828125 -1.984375 C 3.984375 -2.191406 4.066406 -2.457031 4.078125 -2.78125 L 4.078125 -6.8125 C 4.078125 -7.164062 4 -7.441406 3.84375 -7.640625 C 3.6875 -7.835938 3.472656 -7.9375 3.203125 -7.9375 L 2.609375 -7.9375 C 2.554688 -7.9375 2.53125 -7.914062 2.53125 -7.875 Z M 2.53125 -1.734375 "/></g></g></g><g fill="#faf2e9" fill-opacity="1"><g transform="translate(29.451292, 237.057949)"><g><path d="M 5.640625 -8.109375 C 5.640625 -8.066406 5.625 -8.023438 5.59375 -7.984375 C 5.5625 -7.953125 5.519531 -7.9375 5.46875 -7.9375 L 2.609375 -7.9375 C 2.554688 -7.9375 2.53125 -7.914062 2.53125 -7.875 L 2.53125 -5.703125 C 2.53125 -5.660156 2.554688 -5.640625 2.609375 -5.640625 L 4.25 -5.640625 C 4.300781 -5.640625 4.34375 -5.625 4.375 -5.59375 C 4.40625 -5.5625 4.421875 -5.519531 4.421875 -5.46875 L 4.421875 -4.140625 C 4.421875 -4.097656 4.40625 -4.0625 4.375 -4.03125 C 4.34375 -4 4.300781 -3.984375 4.25 -3.984375 L 2.609375 -3.984375 C 2.554688 -3.984375 2.53125 -3.957031 2.53125 -3.90625 L 2.53125 -1.734375 C 2.53125 -1.679688 2.554688 -1.65625 2.609375 -1.65625 L 5.46875 -1.65625 C 5.519531 -1.65625 5.5625 -1.640625 5.59375 -1.609375 C 5.625 -1.578125 5.640625 -1.539062 5.640625 -1.5 L 5.640625 -0.171875 C 5.640625 -0.117188 5.625 -0.078125 5.59375 -0.046875 C 5.5625 -0.015625 5.519531 0 5.46875 0 L 0.765625 0 C 0.722656 0 0.6875 -0.015625 0.65625 -0.046875 C 0.625 -0.078125 0.609375 -0.117188 0.609375 -0.171875 L 0.609375 -9.4375 C 0.609375 -9.476562 0.625 -9.515625 0.65625 -9.546875 C 0.6875 -9.585938 0.722656 -9.609375 0.765625 -9.609375 L 5.46875 -9.609375 C 5.519531 -9.609375 5.5625 -9.585938 5.59375 -9.546875 C 5.625 -9.515625 5.640625 -9.476562 5.640625 -9.4375 Z M 5.640625 -8.109375 "/></g></g></g><g fill="#faf2e9" fill-opacity="1"><g transform="translate(260.330307, 228.949062)"><g><path d="M 3.9375 -2.53125 C 3.90625 -2.507812 3.894531 -2.484375 3.90625 -2.453125 C 3.925781 -2.429688 3.953125 -2.421875 3.984375 -2.421875 L 8.15625 -2.421875 C 8.226562 -2.421875 8.285156 -2.394531 8.328125 -2.34375 C 8.378906 -2.300781 8.40625 -2.242188 8.40625 -2.171875 L 8.40625 -0.234375 C 8.40625 -0.171875 8.378906 -0.113281 8.328125 -0.0625 C 8.285156 -0.0195312 8.226562 0 8.15625 0 L 0.78125 0 C 0.707031 0 0.644531 -0.0195312 0.59375 -0.0625 C 0.550781 -0.113281 0.53125 -0.171875 0.53125 -0.234375 L 0.53125 -2.25 C 0.53125 -2.375 0.566406 -2.472656 0.640625 -2.546875 C 1.171875 -3.253906 1.539062 -3.734375 1.75 -3.984375 C 2.925781 -5.492188 3.757812 -6.632812 4.25 -7.40625 C 4.96875 -8.550781 5.328125 -9.515625 5.328125 -10.296875 C 5.328125 -10.742188 5.234375 -11.09375 5.046875 -11.34375 C 4.867188 -11.59375 4.628906 -11.71875 4.328125 -11.71875 C 4.023438 -11.71875 3.78125 -11.59375 3.59375 -11.34375 C 3.40625 -11.09375 3.316406 -10.773438 3.328125 -10.390625 L 3.328125 -9.578125 C 3.328125 -9.515625 3.300781 -9.457031 3.25 -9.40625 C 3.207031 -9.363281 3.15625 -9.34375 3.09375 -9.34375 L 0.71875 -9.34375 C 0.65625 -9.34375 0.597656 -9.363281 0.546875 -9.40625 C 0.503906 -9.457031 0.484375 -9.515625 0.484375 -9.578125 L 0.484375 -10.515625 C 0.535156 -11.609375 0.925781 -12.484375 1.65625 -13.140625 C 2.382812 -13.796875 3.316406 -14.125 4.453125 -14.125 C 5.566406 -14.125 6.46875 -13.769531 7.15625 -13.0625 C 7.84375 -12.363281 8.1875 -11.4375 8.1875 -10.28125 C 8.1875 -9.582031 8.070312 -8.921875 7.84375 -8.296875 C 7.625 -7.671875 7.269531 -7 6.78125 -6.28125 C 6.40625 -5.738281 5.769531 -4.890625 4.875 -3.734375 Z M 3.9375 -2.53125 "/></g></g></g><g fill="#faf2e9" fill-opacity="1"><g transform="translate(270.07098, 228.949062)"><g><path d="M 4.515625 0.21875 C 3.335938 0.21875 2.390625 -0.148438 1.671875 -0.890625 C 0.953125 -1.628906 0.59375 -2.601562 0.59375 -3.8125 L 0.59375 -10.15625 C 0.59375 -11.363281 0.953125 -12.335938 1.671875 -13.078125 C 2.390625 -13.816406 3.335938 -14.1875 4.515625 -14.1875 C 5.285156 -14.1875 5.96875 -14.019531 6.5625 -13.6875 C 7.164062 -13.351562 7.628906 -12.878906 7.953125 -12.265625 C 8.273438 -11.660156 8.4375 -10.957031 8.4375 -10.15625 L 8.4375 -3.8125 C 8.4375 -3.007812 8.273438 -2.300781 7.953125 -1.6875 C 7.628906 -1.082031 7.164062 -0.613281 6.5625 -0.28125 C 5.96875 0.0507812 5.285156 0.21875 4.515625 0.21875 Z M 4.515625 -2.1875 C 4.847656 -2.1875 5.113281 -2.320312 5.3125 -2.59375 C 5.519531 -2.863281 5.625 -3.21875 5.625 -3.65625 L 5.625 -10.3125 C 5.625 -10.75 5.519531 -11.097656 5.3125 -11.359375 C 5.113281 -11.628906 4.847656 -11.765625 4.515625 -11.765625 C 4.179688 -11.765625 3.910156 -11.628906 3.703125 -11.359375 C 3.503906 -11.097656 3.40625 -10.75 3.40625 -10.3125 L 3.40625 -3.65625 C 3.40625 -3.21875 3.503906 -2.863281 3.703125 -2.59375 C 3.910156 -2.320312 4.179688 -2.1875 4.515625 -2.1875 Z M 4.515625 -2.1875 "/></g></g></g><g fill="#faf2e9" fill-opacity="1"><g transform="translate(262.006666, 248.90943)"><g><path d="M 2 -13.90625 C 2.101562 -13.945312 2.203125 -13.96875 2.296875 -13.96875 L 4.703125 -13.96875 C 4.773438 -13.96875 4.832031 -13.941406 4.875 -13.890625 C 4.925781 -13.847656 4.953125 -13.796875 4.953125 -13.734375 L 4.953125 -0.234375 C 4.953125 -0.171875 4.925781 -0.113281 4.875 -0.0625 C 4.832031 -0.0195312 4.773438 0 4.703125 0 L 2.375 0 C 2.3125 0 2.253906 -0.0195312 2.203125 -0.0625 C 2.160156 -0.113281 2.140625 -0.171875 2.140625 -0.234375 L 2.140625 -11.140625 C 2.140625 -11.191406 2.101562 -11.21875 2.03125 -11.21875 L 0.5 -11.03125 L 0.453125 -11.03125 C 0.304688 -11.03125 0.234375 -11.101562 0.234375 -11.25 L 0.171875 -12.96875 C 0.171875 -13.101562 0.234375 -13.195312 0.359375 -13.25 Z M 2 -13.90625 "/></g></g></g><g fill="#faf2e9" fill-opacity="1"><g transform="translate(268.673437, 248.90943)"><g><path d="M 6.78125 -7.359375 C 6.726562 -7.304688 6.734375 -7.257812 6.796875 -7.21875 C 7.242188 -6.9375 7.570312 -6.546875 7.78125 -6.046875 C 8.050781 -5.472656 8.1875 -4.800781 8.1875 -4.03125 C 8.1875 -3.414062 8.078125 -2.800781 7.859375 -2.1875 C 7.578125 -1.457031 7.128906 -0.882812 6.515625 -0.46875 C 5.910156 -0.0507812 5.203125 0.15625 4.390625 0.15625 C 3.578125 0.15625 2.863281 -0.046875 2.25 -0.453125 C 1.644531 -0.867188 1.203125 -1.445312 0.921875 -2.1875 C 0.703125 -2.738281 0.59375 -3.351562 0.59375 -4.03125 C 0.59375 -4.769531 0.710938 -5.421875 0.953125 -5.984375 C 1.140625 -6.492188 1.476562 -6.898438 1.96875 -7.203125 C 2.050781 -7.242188 2.050781 -7.285156 1.96875 -7.328125 C 1.507812 -7.640625 1.179688 -8.035156 0.984375 -8.515625 C 0.722656 -9.097656 0.59375 -9.71875 0.59375 -10.375 C 0.59375 -11.09375 0.722656 -11.710938 0.984375 -12.234375 C 1.253906 -12.859375 1.691406 -13.34375 2.296875 -13.6875 C 2.910156 -14.039062 3.609375 -14.21875 4.390625 -14.21875 C 5.160156 -14.21875 5.84375 -14.046875 6.4375 -13.703125 C 7.039062 -13.367188 7.488281 -12.882812 7.78125 -12.25 C 8.050781 -11.6875 8.1875 -11.0625 8.1875 -10.375 C 8.1875 -9.71875 8.054688 -9.109375 7.796875 -8.546875 C 7.597656 -8.066406 7.257812 -7.671875 6.78125 -7.359375 Z M 3.484375 -10.9375 C 3.410156 -10.695312 3.375 -10.421875 3.375 -10.109375 C 3.375 -9.804688 3.421875 -9.503906 3.515625 -9.203125 C 3.566406 -8.929688 3.664062 -8.71875 3.8125 -8.5625 C 3.96875 -8.40625 4.160156 -8.328125 4.390625 -8.328125 C 4.617188 -8.328125 4.8125 -8.40625 4.96875 -8.5625 C 5.125 -8.726562 5.226562 -8.945312 5.28125 -9.21875 C 5.363281 -9.488281 5.40625 -9.78125 5.40625 -10.09375 C 5.40625 -10.4375 5.359375 -10.726562 5.265625 -10.96875 C 5.203125 -11.226562 5.09375 -11.429688 4.9375 -11.578125 C 4.78125 -11.734375 4.597656 -11.8125 4.390625 -11.8125 C 4.160156 -11.8125 3.96875 -11.734375 3.8125 -11.578125 C 3.664062 -11.429688 3.554688 -11.21875 3.484375 -10.9375 Z M 5.328125 -3.328125 C 5.378906 -3.671875 5.40625 -3.960938 5.40625 -4.203125 C 5.40625 -4.609375 5.363281 -4.957031 5.28125 -5.25 C 5.21875 -5.539062 5.109375 -5.769531 4.953125 -5.9375 C 4.804688 -6.101562 4.617188 -6.1875 4.390625 -6.1875 C 4.148438 -6.1875 3.945312 -6.097656 3.78125 -5.921875 C 3.625 -5.753906 3.519531 -5.515625 3.46875 -5.203125 C 3.40625 -4.898438 3.375 -4.582031 3.375 -4.25 C 3.375 -3.875 3.398438 -3.554688 3.453125 -3.296875 C 3.503906 -2.972656 3.609375 -2.71875 3.765625 -2.53125 C 3.929688 -2.34375 4.140625 -2.25 4.390625 -2.25 C 4.640625 -2.25 4.847656 -2.34375 5.015625 -2.53125 C 5.179688 -2.726562 5.285156 -2.992188 5.328125 -3.328125 Z M 5.328125 -3.328125 "/></g></g></g></svg>