<svg xmlns="http://www.w3.org/2000/svg" xmlns:xlink="http://www.w3.org/1999/xlink" width="50" zoomAndPan="magnify" viewBox="0 0 37.5 37.499999" height="50" preserveAspectRatio="xMidYMid meet" version="1.0"><defs><clipPath id="id1"><path d="M 23 10 L 33.527344 10 L 33.527344 28 L 23 28 Z M 23 10 " clip-rule="nonzero"/></clipPath><clipPath id="id2"><path d="M 5 18 L 33 18 L 33 28.996094 L 5 28.996094 Z M 5 18 " clip-rule="nonzero"/></clipPath><clipPath id="id3"><path d="M 5 8.746094 L 33 8.746094 L 33 20 L 5 20 Z M 5 8.746094 " clip-rule="nonzero"/></clipPath><clipPath id="id4"><path d="M 4.277344 10 L 15 10 L 15 28 L 4.277344 28 Z M 4.277344 10 " clip-rule="nonzero"/></clipPath></defs><g clip-path="url(#id1)"><path fill="#ffffff" d="M 23.796875 17.515625 L 33.507812 27.242188 L 33.507812 10.222656 Z M 23.796875 17.515625 " fill-opacity="1" fill-rule="nonzero"/></g><g clip-path="url(#id2)"><path fill="#ffffff" d="M 22.433594 18.539062 L 19.40625 20.8125 C 19.398438 20.820312 19.386719 20.820312 19.375 20.828125 C 19.320312 20.867188 19.261719 20.898438 19.199219 20.921875 C 19.179688 20.929688 19.15625 20.9375 19.136719 20.941406 C 19.0625 20.964844 18.984375 20.980469 18.90625 20.980469 C 18.90625 20.980469 18.90625 20.980469 18.902344 20.980469 C 18.902344 20.980469 18.902344 20.980469 18.898438 20.980469 C 18.820312 20.980469 18.746094 20.964844 18.671875 20.941406 C 18.648438 20.9375 18.628906 20.929688 18.605469 20.921875 C 18.542969 20.898438 18.484375 20.867188 18.429688 20.828125 C 18.421875 20.820312 18.40625 20.820312 18.398438 20.8125 L 15.371094 18.539062 L 5.007812 28.914062 C 5.136719 28.964844 5.273438 28.996094 5.421875 28.996094 L 32.382812 28.996094 C 32.53125 28.996094 32.667969 28.964844 32.796875 28.914062 Z M 22.433594 18.539062 " fill-opacity="1" fill-rule="nonzero"/></g><g clip-path="url(#id3)"><path fill="#ffffff" d="M 18.902344 19.082031 L 32.628906 8.773438 C 32.550781 8.757812 32.46875 8.746094 32.382812 8.746094 L 5.421875 8.746094 C 5.335938 8.746094 5.257812 8.757812 5.175781 8.773438 Z M 18.902344 19.082031 " fill-opacity="1" fill-rule="nonzero"/></g><g clip-path="url(#id4)"><path fill="#ffffff" d="M 4.296875 10.222656 L 4.296875 27.242188 L 14.007812 17.515625 Z M 4.296875 10.222656 " fill-opacity="1" fill-rule="nonzero"/></g></svg>