<svg xmlns="http://www.w3.org/2000/svg" xmlns:xlink="http://www.w3.org/1999/xlink" width="500" zoomAndPan="magnify" viewBox="0 0 375 374.999991" height="500" preserveAspectRatio="xMidYMid meet" version="1.0"><defs><g/><clipPath id="id1"><path d="M 141 129.664062 L 237 129.664062 L 237 161 L 141 161 Z M 141 129.664062 " clip-rule="nonzero"/></clipPath><clipPath id="id2"><path d="M 141 129.664062 L 237 129.664062 L 237 161 L 141 161 Z M 141 129.664062 " clip-rule="nonzero"/></clipPath><clipPath id="id3"><path d="M 128.523438 141 L 246.761719 141 L 246.761719 178 L 128.523438 178 Z M 128.523438 141 " clip-rule="nonzero"/></clipPath><clipPath id="id4"><path d="M 145 259 L 230 259 L 230 283.835938 L 145 283.835938 Z M 145 259 " clip-rule="nonzero"/></clipPath></defs><path fill="#eddecd" d="M 151.40625 157.472656 C 147.554688 157.472656 144.421875 154.351562 144.421875 150.515625 L 144.421875 145.261719 C 144.421875 134.242188 152.402344 133.050781 155.835938 133.050781 L 221.917969 133.050781 C 225.355469 133.050781 233.347656 134.242188 233.347656 145.261719 L 233.347656 150.515625 C 233.347656 154.351562 230.210938 157.472656 226.355469 157.472656 Z M 151.40625 157.472656 " fill-opacity="1" fill-rule="nonzero"/><g clip-path="url(#id1)"><path fill="#4d2820" d="M 221.917969 136.433594 C 229.949219 136.433594 229.949219 143.289062 229.949219 145.261719 L 229.949219 150.515625 C 229.949219 152.492188 228.339844 154.089844 226.355469 154.089844 L 151.40625 154.089844 C 149.425781 154.089844 147.816406 152.492188 147.816406 150.515625 L 147.816406 145.261719 C 147.816406 143.289062 147.816406 136.433594 155.835938 136.433594 L 221.917969 136.433594 M 221.917969 129.671875 L 155.835938 129.671875 C 148.675781 129.671875 141.027344 133.765625 141.027344 145.261719 L 141.027344 150.515625 C 141.027344 156.214844 145.683594 160.855469 151.40625 160.855469 L 226.355469 160.855469 C 232.082031 160.855469 236.742188 156.214844 236.742188 150.515625 L 236.742188 145.261719 C 236.742188 133.765625 229.082031 129.671875 221.917969 129.671875 Z M 221.917969 129.671875 " fill-opacity="1" fill-rule="nonzero"/></g><path fill="#eddecd" d="M 151.40625 157.472656 C 147.554688 157.472656 144.421875 154.351562 144.421875 150.515625 L 144.421875 145.261719 C 144.421875 134.242188 152.402344 133.050781 155.835938 133.050781 L 173.804688 133.050781 C 174.832031 133.050781 175.804688 133.515625 176.449219 134.316406 C 179.597656 138.210938 184.199219 140.445312 189.082031 140.445312 C 193.960938 140.445312 198.5625 138.210938 201.710938 134.316406 C 202.355469 133.515625 203.328125 133.050781 204.355469 133.050781 L 221.917969 133.050781 C 225.355469 133.050781 233.347656 134.242188 233.347656 145.261719 L 233.347656 150.515625 C 233.347656 154.351562 230.210938 157.472656 226.355469 157.472656 Z M 151.40625 157.472656 " fill-opacity="1" fill-rule="nonzero"/><g clip-path="url(#id2)"><path fill="#4d2820" d="M 221.917969 136.433594 C 229.949219 136.433594 229.949219 143.289062 229.949219 145.261719 L 229.949219 150.515625 C 229.949219 152.492188 228.339844 154.089844 226.355469 154.089844 L 151.40625 154.089844 C 149.425781 154.089844 147.816406 152.492188 147.816406 150.515625 L 147.816406 145.261719 C 147.816406 143.289062 147.816406 136.433594 155.835938 136.433594 L 173.804688 136.433594 C 177.425781 140.917969 182.960938 143.828125 189.082031 143.828125 C 195.199219 143.828125 200.734375 140.917969 204.355469 136.433594 L 221.917969 136.433594 M 221.917969 129.671875 L 204.355469 129.671875 C 202.296875 129.671875 200.351562 130.597656 199.0625 132.195312 C 196.566406 135.289062 192.925781 137.0625 189.082031 137.0625 C 185.234375 137.0625 181.59375 135.289062 179.097656 132.195312 C 177.808594 130.597656 175.863281 129.671875 173.804688 129.671875 L 155.835938 129.671875 C 148.675781 129.671875 141.027344 133.765625 141.027344 145.261719 L 141.027344 150.515625 C 141.027344 156.214844 145.683594 160.855469 151.40625 160.855469 L 226.355469 160.855469 C 232.082031 160.855469 236.742188 156.214844 236.742188 150.515625 L 236.742188 145.261719 C 236.742188 133.765625 229.082031 129.671875 221.917969 129.671875 Z M 221.917969 129.671875 " fill-opacity="1" fill-rule="nonzero"/></g><path fill="#eddecd" d="M 158.492188 136.433594 L 155.835938 136.433594 C 147.816406 136.433594 147.816406 143.289062 147.816406 145.261719 L 147.816406 150.515625 C 147.816406 152.492188 149.425781 154.089844 151.40625 154.089844 L 158.492188 154.089844 Z M 158.492188 136.433594 " fill-opacity="1" fill-rule="nonzero"/><path fill="#864a3c" d="M 221.917969 136.433594 L 209.59375 136.433594 L 209.59375 154.089844 L 226.355469 154.089844 C 228.339844 154.089844 229.949219 152.492188 229.949219 150.515625 L 229.949219 145.261719 C 229.949219 143.289062 229.949219 136.433594 221.917969 136.433594 Z M 221.917969 136.433594 " fill-opacity="1" fill-rule="nonzero"/><path fill="#eddecd" d="M 153.589844 275.503906 C 151.867188 275.503906 150.414062 274.214844 150.21875 272.507812 L 137.195312 159.722656 C 137.085938 158.765625 137.390625 157.808594 138.035156 157.085938 C 138.679688 156.367188 139.601562 155.957031 140.570312 155.957031 L 234.503906 155.957031 C 235.46875 155.957031 236.390625 156.367188 237.035156 157.085938 C 237.679688 157.804688 237.984375 158.761719 237.878906 159.71875 L 225.011719 272.503906 C 224.816406 274.210938 223.363281 275.503906 221.636719 275.503906 Z M 153.589844 275.503906 " fill-opacity="1" fill-rule="nonzero"/><path fill="#4d2820" d="M 234.503906 159.335938 L 221.636719 272.121094 L 153.589844 272.121094 L 140.570312 159.335938 L 234.503906 159.335938 M 234.503906 152.574219 L 140.570312 152.574219 C 138.632812 152.574219 136.789062 153.398438 135.5 154.835938 C 134.210938 156.277344 133.601562 158.195312 133.824219 160.109375 L 146.84375 272.894531 C 147.238281 276.308594 150.140625 278.882812 153.589844 278.882812 L 221.636719 278.882812 C 225.089844 278.882812 227.992188 276.300781 228.382812 272.882812 L 241.25 160.101562 C 241.46875 158.1875 240.855469 156.269531 239.566406 154.832031 C 238.28125 153.398438 236.4375 152.574219 234.503906 152.574219 Z M 234.503906 166.097656 L 234.507812 166.097656 Z M 234.503906 166.097656 " fill-opacity="1" fill-rule="nonzero"/><path fill="#eddecd" d="M 158.492188 159.335938 L 140.570312 159.335938 L 153.589844 272.121094 L 158.492188 272.121094 Z M 158.492188 159.335938 " fill-opacity="1" fill-rule="nonzero"/><path fill="#864a3c" d="M 209.59375 159.335938 L 209.59375 272.121094 L 221.636719 272.121094 L 234.503906 159.335938 Z M 209.59375 159.335938 " fill-opacity="1" fill-rule="nonzero"/><path fill="#eddecd" d="M 150.351562 247.441406 C 148.628906 247.441406 147.175781 246.152344 146.980469 244.449219 L 140.898438 191.796875 C 140.785156 190.839844 141.09375 189.878906 141.734375 189.160156 C 142.378906 188.441406 143.300781 188.03125 144.269531 188.03125 L 230.84375 188.03125 C 231.8125 188.03125 232.734375 188.441406 233.378906 189.160156 C 234.023438 189.878906 234.328125 190.835938 234.21875 191.792969 L 228.214844 244.441406 C 228.019531 246.152344 226.566406 247.441406 224.839844 247.441406 Z M 150.351562 247.441406 " fill-opacity="1" fill-rule="nonzero"/><path fill="#4d2820" d="M 230.84375 191.410156 L 230.847656 191.410156 M 230.84375 191.410156 L 224.839844 244.0625 L 150.351562 244.0625 L 144.269531 191.410156 L 230.84375 191.410156 M 230.847656 184.648438 L 144.269531 184.648438 C 142.332031 184.648438 140.488281 185.46875 139.203125 186.910156 C 137.914062 188.347656 137.300781 190.265625 137.523438 192.183594 L 143.605469 244.832031 C 144 248.246094 146.902344 250.824219 150.351562 250.824219 L 224.839844 250.824219 C 228.292969 250.824219 231.195312 248.242188 231.585938 244.824219 L 237.574219 192.34375 C 237.613281 192.039062 237.636719 191.726562 237.636719 191.410156 C 237.636719 187.675781 234.597656 184.648438 230.847656 184.648438 Z M 230.84375 198.171875 L 230.847656 198.171875 Z M 230.84375 198.171875 " fill-opacity="1" fill-rule="nonzero"/><path fill="#eddecd" d="M 158.492188 191.410156 L 144.269531 191.410156 L 150.351562 244.0625 L 158.492188 244.0625 Z M 158.492188 191.410156 " fill-opacity="1" fill-rule="nonzero"/><path fill="#864a3c" d="M 206.171875 191.410156 L 206.171875 244.0625 L 224.839844 244.0625 L 230.84375 191.410156 Z M 206.171875 191.410156 " fill-opacity="1" fill-rule="nonzero"/><path fill="#eddecd" d="M 140.035156 173.945312 C 135.644531 173.945312 132.074219 170.390625 132.074219 166.019531 L 132.074219 152.660156 C 132.074219 148.289062 135.644531 144.734375 140.035156 144.734375 L 235.308594 144.734375 C 239.699219 144.734375 243.269531 148.289062 243.269531 152.660156 L 243.269531 166.019531 C 243.269531 170.390625 239.699219 173.945312 235.308594 173.945312 Z M 140.035156 173.945312 " fill-opacity="1" fill-rule="nonzero"/><g clip-path="url(#id3)"><path fill="#4d2820" d="M 235.308594 148.113281 C 237.828125 148.113281 239.875 150.148438 239.875 152.660156 L 239.875 166.019531 C 239.875 168.527344 237.828125 170.5625 235.308594 170.5625 L 140.035156 170.5625 C 137.515625 170.5625 135.46875 168.527344 135.46875 166.019531 L 135.46875 152.660156 C 135.46875 150.148438 137.515625 148.113281 140.035156 148.113281 L 235.308594 148.113281 M 235.308594 141.351562 L 140.035156 141.351562 C 133.773438 141.351562 128.675781 146.425781 128.675781 152.660156 L 128.675781 166.019531 C 128.675781 172.253906 133.773438 177.324219 140.035156 177.324219 L 235.308594 177.324219 C 241.570312 177.324219 246.664062 172.253906 246.664062 166.019531 L 246.664062 152.660156 C 246.667969 146.425781 241.570312 141.351562 235.308594 141.351562 Z M 235.308594 141.351562 " fill-opacity="1" fill-rule="nonzero"/></g><path fill="#eddecd" d="M 158.492188 148.113281 L 140.035156 148.113281 C 137.515625 148.113281 135.46875 150.148438 135.46875 152.660156 L 135.46875 166.019531 C 135.46875 168.527344 137.515625 170.5625 140.035156 170.5625 L 158.492188 170.5625 Z M 158.492188 148.113281 " fill-opacity="1" fill-rule="nonzero"/><path fill="#864a3c" d="M 235.308594 148.113281 L 206.171875 148.113281 L 206.171875 170.5625 L 235.308594 170.5625 C 237.828125 170.5625 239.875 168.527344 239.875 166.019531 L 239.875 152.660156 C 239.875 150.148438 237.828125 148.113281 235.308594 148.113281 Z M 235.308594 148.113281 " fill-opacity="1" fill-rule="nonzero"/><path fill="#eddecd" d="M 152.746094 280.449219 C 150.871094 280.449219 149.351562 278.933594 149.351562 277.066406 L 149.351562 266.597656 C 149.351562 264.730469 150.871094 263.21875 152.746094 263.21875 L 222.511719 263.21875 C 224.386719 263.21875 225.90625 264.730469 225.90625 266.597656 L 225.90625 277.066406 C 225.90625 278.933594 224.386719 280.449219 222.511719 280.449219 Z M 152.746094 280.449219 " fill-opacity="1" fill-rule="nonzero"/><g clip-path="url(#id4)"><path fill="#4d2820" d="M 222.511719 266.597656 L 222.511719 277.066406 L 152.746094 277.066406 L 152.746094 266.597656 L 222.511719 266.597656 M 222.511719 259.835938 L 152.746094 259.835938 C 148.996094 259.835938 145.957031 262.863281 145.957031 266.597656 L 145.957031 277.066406 C 145.957031 280.800781 148.996094 283.828125 152.746094 283.828125 L 222.511719 283.828125 C 226.261719 283.828125 229.304688 280.800781 229.304688 277.066406 L 229.304688 266.597656 C 229.300781 262.863281 226.261719 259.835938 222.511719 259.835938 Z M 222.511719 259.835938 " fill-opacity="1" fill-rule="nonzero"/></g><path fill="#864a3c" d="M 206.171875 266.597656 L 222.511719 266.597656 L 222.511719 277.066406 L 206.171875 277.066406 Z M 206.171875 266.597656 " fill-opacity="1" fill-rule="nonzero"/><path fill="#eddecd" d="M 152.746094 266.597656 L 158.492188 266.597656 L 158.492188 277.066406 L 152.746094 277.066406 Z M 152.746094 266.597656 " fill-opacity="1" fill-rule="nonzero"/><path fill="#eddecd" d="M 187.734375 237.082031 C 177.015625 237.082031 168.300781 228.402344 168.300781 217.734375 C 168.300781 207.066406 177.015625 198.386719 187.734375 198.386719 C 198.449219 198.386719 207.164062 207.066406 207.164062 217.734375 C 207.164062 228.402344 198.449219 237.082031 187.734375 237.082031 Z M 187.734375 237.082031 " fill-opacity="1" fill-rule="nonzero"/><path fill="#4d2820" d="M 187.734375 201.765625 C 196.589844 201.765625 203.769531 208.914062 203.769531 217.734375 C 203.769531 226.554688 196.589844 233.703125 187.734375 233.703125 C 178.875 233.703125 171.695312 226.554688 171.695312 217.734375 C 171.695312 208.914062 178.875 201.765625 187.734375 201.765625 M 187.734375 195.003906 C 175.144531 195.003906 164.902344 205.199219 164.902344 217.734375 C 164.902344 230.269531 175.144531 240.464844 187.734375 240.464844 C 200.320312 240.464844 210.558594 230.269531 210.558594 217.734375 C 210.558594 205.199219 200.320312 195.003906 187.734375 195.003906 Z M 187.734375 195.003906 " fill-opacity="1" fill-rule="nonzero"/><g fill="#faf2e9" fill-opacity="1"><g transform="translate(94.412371, 153.112813)"><g><path d="M 3.171875 -8.890625 C 2.460938 -6.671875 1.226562 -5.101562 -0.53125 -4.1875 C -2.300781 -3.28125 -4.296875 -3.175781 -6.515625 -3.875 L -19.828125 -8.125 C -22.054688 -8.832031 -23.613281 -10.0625 -24.5 -11.8125 C -25.382812 -13.570312 -25.472656 -15.5625 -24.765625 -17.78125 C -24.054688 -20.007812 -22.828125 -21.59375 -21.078125 -22.53125 C -19.335938 -23.46875 -17.351562 -23.582031 -15.125 -22.875 L -14.640625 -22.71875 C -14.515625 -22.675781 -14.414062 -22.585938 -14.34375 -22.453125 C -14.269531 -22.328125 -14.253906 -22.203125 -14.296875 -22.078125 L -15.28125 -18.40625 C -15.382812 -18.09375 -15.59375 -17.988281 -15.90625 -18.09375 L -16.890625 -18.40625 C -17.785156 -18.695312 -18.601562 -18.671875 -19.34375 -18.328125 C -20.09375 -17.992188 -20.601562 -17.398438 -20.875 -16.546875 C -21.144531 -15.710938 -21.070312 -14.941406 -20.65625 -14.234375 C -20.238281 -13.523438 -19.582031 -13.023438 -18.6875 -12.734375 L -4.703125 -8.28125 C -3.785156 -7.988281 -2.960938 -8.015625 -2.234375 -8.359375 C -1.503906 -8.703125 -1.003906 -9.289062 -0.734375 -10.125 C -0.460938 -10.976562 -0.523438 -11.753906 -0.921875 -12.453125 C -1.328125 -13.160156 -1.988281 -13.660156 -2.90625 -13.953125 L -3.890625 -14.265625 C -4.015625 -14.304688 -4.101562 -14.382812 -4.15625 -14.5 C -4.21875 -14.625 -4.226562 -14.75 -4.1875 -14.875 L -2.90625 -18.453125 C -2.863281 -18.578125 -2.78125 -18.671875 -2.65625 -18.734375 C -2.53125 -18.804688 -2.398438 -18.820312 -2.265625 -18.78125 L -1.8125 -18.625 C 0.40625 -17.925781 1.96875 -16.6875 2.875 -14.90625 C 3.78125 -13.125 3.878906 -11.117188 3.171875 -8.890625 Z M 3.171875 -8.890625 "/></g></g></g><g fill="#faf2e9" fill-opacity="1"><g transform="translate(100.405531, 134.494719)"><g><path d="M 4.984375 -8.15625 C 3.828125 -6.101562 2.273438 -4.800781 0.328125 -4.25 C -1.609375 -3.707031 -3.597656 -4.015625 -5.640625 -5.171875 L -17.609375 -11.96875 C -19.648438 -13.125 -20.9375 -14.671875 -21.46875 -16.609375 C -22 -18.554688 -21.6875 -20.554688 -20.53125 -22.609375 C -19.375 -24.640625 -17.816406 -25.9375 -15.859375 -26.5 C -13.910156 -27.0625 -11.914062 -26.765625 -9.875 -25.609375 L 2.09375 -18.8125 C 4.132812 -17.65625 5.414062 -16.097656 5.9375 -14.140625 C 6.457031 -12.179688 6.140625 -10.1875 4.984375 -8.15625 Z M 1.421875 -10.171875 C 1.878906 -10.972656 1.972656 -11.78125 1.703125 -12.59375 C 1.429688 -13.414062 0.84375 -14.082031 -0.0625 -14.59375 L -12.390625 -21.578125 C -13.285156 -22.085938 -14.15625 -22.25 -15 -22.0625 C -15.851562 -21.882812 -16.507812 -21.394531 -16.96875 -20.59375 C -17.425781 -19.78125 -17.507812 -18.96875 -17.21875 -18.15625 C -16.9375 -17.351562 -16.347656 -16.695312 -15.453125 -16.1875 L -3.125 -9.203125 C -2.21875 -8.691406 -1.347656 -8.519531 -0.515625 -8.6875 C 0.316406 -8.863281 0.960938 -9.359375 1.421875 -10.171875 Z M 1.421875 -10.171875 "/></g></g></g><g fill="#faf2e9" fill-opacity="1"><g transform="translate(110.346613, 117.189033)"><g><path d="M -14.65625 -26.765625 C -13.695312 -27.847656 -12.585938 -28.566406 -11.328125 -28.921875 C -10.066406 -29.285156 -8.753906 -29.273438 -7.390625 -28.890625 C -6.023438 -28.503906 -4.722656 -27.765625 -3.484375 -26.671875 C -1.648438 -25.054688 -0.597656 -23.265625 -0.328125 -21.296875 C -0.0546875 -19.328125 -0.625 -17.546875 -2.03125 -15.953125 L -4.328125 -13.34375 C -4.421875 -13.238281 -4.421875 -13.140625 -4.328125 -13.046875 L 4.21875 -5.515625 C 4.320312 -5.421875 4.375 -5.304688 4.375 -5.171875 C 4.382812 -5.046875 4.34375 -4.925781 4.25 -4.8125 L 1.765625 -1.984375 C 1.671875 -1.890625 1.554688 -1.835938 1.421875 -1.828125 C 1.296875 -1.816406 1.179688 -1.859375 1.078125 -1.953125 L -19.71875 -20.296875 C -19.820312 -20.390625 -19.875 -20.503906 -19.875 -20.640625 C -19.882812 -20.773438 -19.84375 -20.890625 -19.75 -20.984375 Z M -5.515625 -17.65625 C -4.847656 -18.40625 -4.597656 -19.265625 -4.765625 -20.234375 C -4.941406 -21.210938 -5.535156 -22.148438 -6.546875 -23.046875 C -7.566406 -23.941406 -8.582031 -24.421875 -9.59375 -24.484375 C -10.601562 -24.554688 -11.441406 -24.21875 -12.109375 -23.46875 L -13.734375 -21.625 C -13.828125 -21.519531 -13.820312 -21.425781 -13.71875 -21.34375 L -7.421875 -15.78125 C -7.328125 -15.695312 -7.234375 -15.707031 -7.140625 -15.8125 Z M -5.515625 -17.65625 "/></g></g></g><g fill="#faf2e9" fill-opacity="1"><g transform="translate(123.375972, 102.570309)"><g><path d="M 11.09375 -8.296875 C 10.820312 -8.085938 10.585938 -8.097656 10.390625 -8.328125 L 7.1875 -11.296875 C 7.101562 -11.410156 6.992188 -11.421875 6.859375 -11.328125 L 2.09375 -7.75 C 1.957031 -7.644531 1.929688 -7.535156 2.015625 -7.421875 L 3.96875 -3.515625 C 4.113281 -3.265625 4.054688 -3.039062 3.796875 -2.84375 L 0.828125 -0.625 C 0.515625 -0.382812 0.289062 -0.429688 0.15625 -0.765625 L -11.578125 -26.5625 C -11.722656 -26.84375 -11.671875 -27.078125 -11.421875 -27.265625 L -7.953125 -29.859375 C -7.710938 -30.035156 -7.476562 -30.019531 -7.25 -29.8125 L 14.171875 -11.25 L 14.265625 -11.125 C 14.410156 -10.925781 14.367188 -10.742188 14.140625 -10.578125 Z M 0.109375 -11.1875 C 0.171875 -11.0625 0.269531 -11.046875 0.40625 -11.140625 L 4.046875 -13.875 C 4.179688 -13.96875 4.191406 -14.0625 4.078125 -14.15625 L -5.5625 -23.09375 C -5.625 -23.144531 -5.675781 -23.15625 -5.71875 -23.125 C -5.769531 -23.09375 -5.785156 -23.035156 -5.765625 -22.953125 Z M 0.109375 -11.1875 "/></g></g></g><g fill="#faf2e9" fill-opacity="1"><g transform="translate(139.899309, 90.884965)"><g/></g></g><g fill="#faf2e9" fill-opacity="1"><g transform="translate(148.446723, 86.063496)"><g><path d="M 0.625 -30.5 C 2 -30.96875 3.320312 -31.046875 4.59375 -30.734375 C 5.875 -30.421875 7.003906 -29.75 7.984375 -28.71875 C 8.972656 -27.695312 9.734375 -26.410156 10.265625 -24.859375 C 11.046875 -22.535156 11.066406 -20.453125 10.328125 -18.609375 C 9.585938 -16.773438 8.207031 -15.515625 6.1875 -14.828125 L 2.890625 -13.71875 C 2.765625 -13.675781 2.722656 -13.59375 2.765625 -13.46875 L 6.40625 -2.671875 C 6.445312 -2.546875 6.4375 -2.421875 6.375 -2.296875 C 6.320312 -2.179688 6.222656 -2.101562 6.078125 -2.0625 L 2.515625 -0.84375 C 2.390625 -0.800781 2.265625 -0.804688 2.140625 -0.859375 C 2.023438 -0.921875 1.945312 -1.015625 1.90625 -1.140625 L -6.96875 -27.421875 C -7.007812 -27.546875 -7 -27.664062 -6.9375 -27.78125 C -6.882812 -27.90625 -6.796875 -27.988281 -6.671875 -28.03125 Z M 4.015625 -18.046875 C 4.972656 -18.367188 5.613281 -18.992188 5.9375 -19.921875 C 6.269531 -20.859375 6.222656 -21.960938 5.796875 -23.234375 C 5.359375 -24.523438 4.722656 -25.453125 3.890625 -26.015625 C 3.054688 -26.578125 2.160156 -26.695312 1.203125 -26.375 L -1.125 -25.59375 C -1.25 -25.550781 -1.289062 -25.46875 -1.25 -25.34375 L 1.4375 -17.390625 C 1.476562 -17.265625 1.5625 -17.222656 1.6875 -17.265625 Z M 4.015625 -18.046875 "/></g></g></g><g fill="#faf2e9" fill-opacity="1"><g transform="translate(167.012595, 79.873918)"><g><path d="M 13.46875 -1.609375 C 13.1875 -1.578125 12.988281 -1.691406 12.875 -1.953125 L 8.03125 -13.203125 C 7.957031 -13.304688 7.882812 -13.351562 7.8125 -13.34375 L 5.65625 -13.09375 C 5.519531 -13.070312 5.460938 -12.992188 5.484375 -12.859375 L 6.859375 -1.3125 C 6.878906 -1.175781 6.84375 -1.054688 6.75 -0.953125 C 6.664062 -0.847656 6.554688 -0.785156 6.421875 -0.765625 L 2.6875 -0.328125 C 2.550781 -0.304688 2.429688 -0.335938 2.328125 -0.421875 C 2.222656 -0.503906 2.160156 -0.613281 2.140625 -0.75 L -1.15625 -28.234375 C -1.164062 -28.367188 -1.128906 -28.488281 -1.046875 -28.59375 C -0.972656 -28.707031 -0.867188 -28.773438 -0.734375 -28.796875 L 6.90625 -29.703125 C 8.34375 -29.878906 9.648438 -29.6875 10.828125 -29.125 C 12.015625 -28.5625 12.988281 -27.6875 13.75 -26.5 C 14.507812 -25.3125 14.988281 -23.90625 15.1875 -22.28125 C 15.382812 -20.601562 15.234375 -19.113281 14.734375 -17.8125 C 14.234375 -16.519531 13.4375 -15.488281 12.34375 -14.71875 C 12.238281 -14.6875 12.210938 -14.601562 12.265625 -14.46875 L 17.703125 -2.703125 C 17.734375 -2.648438 17.753906 -2.585938 17.765625 -2.515625 C 17.796875 -2.265625 17.660156 -2.117188 17.359375 -2.078125 Z M 4.203125 -25.265625 C 4.066406 -25.242188 4.003906 -25.160156 4.015625 -25.015625 L 4.984375 -16.9375 C 5.003906 -16.800781 5.082031 -16.742188 5.21875 -16.765625 L 7.703125 -17.0625 C 8.671875 -17.175781 9.410156 -17.648438 9.921875 -18.484375 C 10.441406 -19.316406 10.625 -20.378906 10.46875 -21.671875 C 10.3125 -22.972656 9.882812 -23.972656 9.1875 -24.671875 C 8.488281 -25.378906 7.65625 -25.675781 6.6875 -25.5625 Z M 4.203125 -25.265625 "/></g></g></g><g fill="#faf2e9" fill-opacity="1"><g transform="translate(187.282122, 77.962164)"><g><path d="M 2.703125 0.125 C 2.566406 0.113281 2.453125 0.0625 2.359375 -0.03125 C 2.273438 -0.132812 2.234375 -0.253906 2.234375 -0.390625 L 3.453125 -28.046875 C 3.460938 -28.179688 3.515625 -28.296875 3.609375 -28.390625 C 3.710938 -28.484375 3.832031 -28.523438 3.96875 -28.515625 L 7.734375 -28.359375 C 7.867188 -28.347656 7.984375 -28.289062 8.078125 -28.1875 C 8.171875 -28.082031 8.210938 -27.960938 8.203125 -27.828125 L 6.984375 -0.171875 C 6.984375 -0.0351562 6.929688 0.0703125 6.828125 0.15625 C 6.722656 0.25 6.601562 0.289062 6.46875 0.28125 Z M 2.703125 0.125 "/></g></g></g><g fill="#faf2e9" fill-opacity="1"><g transform="translate(197.804262, 77.970166)"><g><path d="M 20.9375 -24.34375 C 21.113281 -24.519531 21.332031 -24.578125 21.59375 -24.515625 L 25.28125 -23.6875 C 25.40625 -23.664062 25.503906 -23.597656 25.578125 -23.484375 C 25.648438 -23.367188 25.671875 -23.242188 25.640625 -23.109375 L 19.5625 3.90625 C 19.53125 4.03125 19.457031 4.128906 19.34375 4.203125 C 19.226562 4.273438 19.109375 4.300781 18.984375 4.28125 L 15.296875 3.453125 C 15.171875 3.421875 15.066406 3.347656 14.984375 3.234375 C 14.910156 3.117188 14.890625 3 14.921875 2.875 L 19.171875 -16 C 19.191406 -16.101562 19.175781 -16.160156 19.125 -16.171875 C 19.070312 -16.191406 19.015625 -16.164062 18.953125 -16.09375 L 14.046875 -10.5625 C 13.867188 -10.382812 13.726562 -10.304688 13.625 -10.328125 C 13.519531 -10.347656 13.414062 -10.476562 13.3125 -10.71875 L 11.265625 -17.8125 C 11.234375 -17.914062 11.191406 -17.972656 11.140625 -17.984375 C 11.085938 -17.992188 11.050781 -17.945312 11.03125 -17.84375 L 6.78125 1.03125 C 6.75 1.15625 6.675781 1.253906 6.5625 1.328125 C 6.445312 1.398438 6.320312 1.421875 6.1875 1.390625 L 2.515625 0.5625 C 2.378906 0.53125 2.273438 0.457031 2.203125 0.34375 C 2.140625 0.226562 2.125 0.109375 2.15625 -0.015625 L 8.234375 -27.03125 C 8.265625 -27.164062 8.332031 -27.269531 8.4375 -27.34375 C 8.550781 -27.414062 8.675781 -27.4375 8.8125 -27.40625 L 12.484375 -26.578125 C 12.742188 -26.515625 12.925781 -26.363281 13.03125 -26.125 L 15.359375 -18.421875 C 15.421875 -18.285156 15.5 -18.269531 15.59375 -18.375 Z M 20.9375 -24.34375 "/></g></g></g><g fill="#faf2e9" fill-opacity="1"><g transform="translate(219.853457, 83.194592)"><g><path d="M 12.515625 5.921875 C 12.210938 5.773438 12.113281 5.5625 12.21875 5.28125 L 13.359375 1.0625 C 13.421875 0.9375 13.375 0.835938 13.21875 0.765625 L 7.828125 -1.78125 C 7.679688 -1.851562 7.578125 -1.828125 7.515625 -1.703125 L 4.96875 1.859375 C 4.8125 2.109375 4.585938 2.164062 4.296875 2.03125 L 0.9375 0.4375 C 0.582031 0.269531 0.519531 0.046875 0.75 -0.234375 L 18.0625 -22.65625 C 18.25 -22.914062 18.476562 -22.984375 18.75 -22.859375 L 22.671875 -21 C 22.929688 -20.875 23.023438 -20.65625 22.953125 -20.34375 L 16.59375 7.25 L 16.515625 7.390625 C 16.410156 7.617188 16.222656 7.671875 15.953125 7.546875 Z M 9.9375 -5.125 C 9.851562 -5.019531 9.890625 -4.929688 10.046875 -4.859375 L 14.15625 -2.921875 C 14.300781 -2.847656 14.390625 -2.875 14.421875 -3 L 17.796875 -15.71875 C 17.828125 -15.800781 17.816406 -15.851562 17.765625 -15.875 C 17.710938 -15.90625 17.648438 -15.890625 17.578125 -15.828125 Z M 9.9375 -5.125 "/></g></g></g><g fill="#faf2e9" fill-opacity="1"><g transform="translate(237.462071, 91.590401)"><g><path d="M 6 4.5625 C 5.757812 4.375 5.710938 4.144531 5.859375 3.875 L 17.9375 -21.71875 L 18.015625 -21.859375 C 18.160156 -22.054688 18.351562 -22.0625 18.59375 -21.875 L 21.875 -19.390625 C 22.132812 -19.179688 22.1875 -18.953125 22.03125 -18.703125 L 12.8125 -0.953125 C 12.789062 -0.867188 12.800781 -0.8125 12.84375 -0.78125 C 12.882812 -0.75 12.941406 -0.757812 13.015625 -0.8125 L 27.578125 -14.484375 C 27.773438 -14.703125 28.003906 -14.71875 28.265625 -14.53125 L 31.46875 -12.09375 C 31.75 -11.882812 31.75 -11.660156 31.46875 -11.421875 L 10.03125 7.046875 C 9.789062 7.253906 9.554688 7.269531 9.328125 7.09375 Z M 6 4.5625 "/></g></g></g><g fill="#faf2e9" fill-opacity="1"><g transform="translate(253.418957, 103.924412)"><g><path d="M 29.734375 -4.03125 C 29.640625 -3.9375 29.523438 -3.890625 29.390625 -3.890625 C 29.253906 -3.898438 29.140625 -3.957031 29.046875 -4.0625 L 23.234375 -10.734375 C 23.148438 -10.835938 23.050781 -10.84375 22.9375 -10.75 L 17.109375 -5.671875 C 17.003906 -5.578125 16.992188 -5.476562 17.078125 -5.375 L 20.53125 -1.421875 C 20.613281 -1.328125 20.65625 -1.210938 20.65625 -1.078125 C 20.65625 -0.941406 20.601562 -0.828125 20.5 -0.734375 L 18.125 1.34375 C 18.019531 1.425781 17.894531 1.460938 17.75 1.453125 C 17.613281 1.441406 17.503906 1.390625 17.421875 1.296875 L 13.96875 -2.65625 C 13.882812 -2.757812 13.789062 -2.769531 13.6875 -2.6875 L 7.8125 2.421875 C 7.71875 2.515625 7.710938 2.613281 7.796875 2.71875 L 13.609375 9.390625 C 13.703125 9.492188 13.742188 9.609375 13.734375 9.734375 C 13.722656 9.867188 13.664062 9.976562 13.5625 10.0625 L 11.203125 12.125 C 11.109375 12.207031 10.992188 12.242188 10.859375 12.234375 C 10.722656 12.234375 10.609375 12.179688 10.515625 12.078125 L 1.78125 2.03125 C 1.6875 1.9375 1.644531 1.820312 1.65625 1.6875 C 1.664062 1.550781 1.71875 1.441406 1.8125 1.359375 L 22.6875 -16.828125 C 22.789062 -16.921875 22.910156 -16.960938 23.046875 -16.953125 C 23.191406 -16.941406 23.3125 -16.890625 23.40625 -16.796875 L 32.140625 -6.75 C 32.234375 -6.644531 32.269531 -6.523438 32.25 -6.390625 C 32.238281 -6.265625 32.179688 -6.15625 32.078125 -6.0625 Z M 29.734375 -4.03125 "/></g></g></g><g fill="#faf2e9" fill-opacity="1"><g transform="translate(265.696989, 118.073924)"><g><path d="M 6.671875 11.8125 C 6.535156 11.5625 6.566406 11.332031 6.765625 11.125 L 15.28125 2.328125 C 15.351562 2.222656 15.367188 2.140625 15.328125 2.078125 L 14.265625 0.1875 C 14.191406 0.0625 14.097656 0.03125 13.984375 0.09375 L 3.84375 5.828125 C 3.726562 5.890625 3.601562 5.898438 3.46875 5.859375 C 3.34375 5.828125 3.25 5.75 3.1875 5.625 L 1.328125 2.359375 C 1.265625 2.234375 1.25 2.109375 1.28125 1.984375 C 1.320312 1.859375 1.398438 1.765625 1.515625 1.703125 L 25.625 -11.921875 C 25.738281 -11.984375 25.863281 -12 26 -11.96875 C 26.132812 -11.945312 26.234375 -11.875 26.296875 -11.75 L 30.09375 -5.046875 C 30.800781 -3.785156 31.117188 -2.503906 31.046875 -1.203125 C 30.984375 0.0976562 30.546875 1.328125 29.734375 2.484375 C 28.929688 3.648438 27.820312 4.632812 26.40625 5.4375 C 24.9375 6.269531 23.503906 6.703125 22.109375 6.734375 C 20.710938 6.765625 19.453125 6.425781 18.328125 5.71875 C 18.253906 5.632812 18.164062 5.644531 18.0625 5.75 L 9.296875 15.296875 C 9.265625 15.347656 9.21875 15.390625 9.15625 15.421875 C 8.9375 15.546875 8.75 15.476562 8.59375 15.21875 Z M 24.921875 -5.84375 C 24.847656 -5.96875 24.75 -5.992188 24.625 -5.921875 L 17.546875 -1.921875 C 17.421875 -1.847656 17.394531 -1.75 17.46875 -1.625 L 18.703125 0.546875 C 19.179688 1.398438 19.90625 1.898438 20.875 2.046875 C 21.84375 2.203125 22.894531 1.960938 24.03125 1.328125 C 25.175781 0.679688 25.9375 -0.0976562 26.3125 -1.015625 C 26.6875 -1.929688 26.632812 -2.816406 26.15625 -3.671875 Z M 24.921875 -5.84375 "/></g></g></g><g fill="#faf2e9" fill-opacity="1"><g transform="translate(275.322475, 135.300987)"><g><path d="M 4.203125 13.1875 C 4.097656 12.875 4.1875 12.660156 4.46875 12.546875 L 8.328125 10.5 C 8.453125 10.457031 8.488281 10.359375 8.4375 10.203125 L 6.640625 4.515625 C 6.585938 4.359375 6.5 4.300781 6.375 4.34375 L 2.046875 4.890625 C 1.742188 4.953125 1.539062 4.832031 1.4375 4.53125 L 0.3125 0.984375 C 0.195312 0.617188 0.316406 0.421875 0.671875 0.390625 L 28.90625 -2.234375 C 29.207031 -2.273438 29.40625 -2.15625 29.5 -1.875 L 30.828125 2.265625 C 30.910156 2.546875 30.816406 2.765625 30.546875 2.921875 L 5.984375 17.078125 L 5.84375 17.125 C 5.601562 17.195312 5.441406 17.097656 5.359375 16.828125 Z M 10.53125 3.78125 C 10.394531 3.789062 10.351562 3.875 10.40625 4.03125 L 11.78125 8.359375 C 11.832031 8.515625 11.914062 8.5625 12.03125 8.5 L 23.640625 2.3125 C 23.710938 2.269531 23.738281 2.21875 23.71875 2.15625 C 23.707031 2.101562 23.65625 2.070312 23.5625 2.0625 Z M 10.53125 3.78125 "/></g></g></g><g fill="#faf2e9" fill-opacity="1"><g transform="translate(67.715415, 324.604685)"><g><path d="M 5.90625 -21.84375 C 7.570312 -21.84375 8.800781 -21.347656 9.59375 -20.359375 C 10.382812 -19.378906 10.78125 -18.0625 10.78125 -16.40625 L 10.78125 -14.46875 L 8.5 -14.46875 L 8.5 -16.53125 C 8.5 -17.519531 8.296875 -18.285156 7.890625 -18.828125 C 7.492188 -19.378906 6.851562 -19.65625 5.96875 -19.65625 C 5.101562 -19.65625 4.460938 -19.378906 4.046875 -18.828125 C 3.640625 -18.285156 3.4375 -17.519531 3.4375 -16.53125 L 3.4375 -5.09375 C 3.4375 -4.101562 3.640625 -3.335938 4.046875 -2.796875 C 4.460938 -2.253906 5.101562 -1.984375 5.96875 -1.984375 C 6.851562 -1.984375 7.492188 -2.253906 7.890625 -2.796875 C 8.296875 -3.335938 8.5 -4.101562 8.5 -5.09375 L 8.5 -7.90625 L 10.78125 -7.90625 L 10.78125 -5.21875 C 10.78125 -3.570312 10.382812 -2.253906 9.59375 -1.265625 C 8.800781 -0.273438 7.570312 0.21875 5.90625 0.21875 C 4.257812 0.21875 3.035156 -0.273438 2.234375 -1.265625 C 1.441406 -2.253906 1.046875 -3.570312 1.046875 -5.21875 L 1.046875 -16.40625 C 1.046875 -17.226562 1.144531 -17.972656 1.34375 -18.640625 C 1.539062 -19.316406 1.835938 -19.890625 2.234375 -20.359375 C 2.640625 -20.835938 3.144531 -21.203125 3.75 -21.453125 C 4.363281 -21.710938 5.082031 -21.84375 5.90625 -21.84375 Z M 5.90625 -21.84375 "/></g></g></g><g fill="#faf2e9" fill-opacity="1"><g transform="translate(82.548626, 324.604685)"><g><path d="M 3.671875 -4.359375 L 2.84375 0 L 0.625 0 L 4.765625 -21.640625 L 8.25 -21.640625 L 12.390625 0 L 9.984375 0 L 9.140625 -4.359375 Z M 3.984375 -6.421875 L 8.8125 -6.421875 L 6.359375 -18.921875 Z M 3.984375 -6.421875 "/></g></g></g><g fill="#faf2e9" fill-opacity="1"><g transform="translate(98.679647, 324.604685)"><g><path d="M 8.625 -11.5625 L 8.625 -9.359375 L 3.640625 -9.359375 L 3.640625 0 L 1.234375 0 L 1.234375 -21.640625 L 9.828125 -21.640625 L 9.828125 -19.4375 L 3.640625 -19.4375 L 3.640625 -11.5625 Z M 8.625 -11.5625 "/></g></g></g><g fill="#faf2e9" fill-opacity="1"><g transform="translate(112.276866, 324.604685)"><g><path d="M 8.75 -26.015625 L 5.875 -22.84375 L 4.203125 -22.84375 L 6.359375 -26.015625 Z M 8.9375 -12.046875 L 8.9375 -9.890625 L 3.640625 -9.890625 L 3.640625 -2.1875 L 10.140625 -2.1875 L 10.140625 0 L 1.234375 0 L 1.234375 -21.640625 L 10.140625 -21.640625 L 10.140625 -19.4375 L 3.640625 -19.4375 L 3.640625 -12.046875 Z M 8.9375 -12.046875 "/></g></g></g><g fill="#faf2e9" fill-opacity="1"><g transform="translate(126.492092, 324.604685)"><g/></g></g><g fill="#faf2e9" fill-opacity="1"><g transform="translate(134.372808, 324.604685)"><g><path d="M 6.3125 -21.640625 C 8 -21.640625 9.238281 -21.160156 10.03125 -20.203125 C 10.820312 -19.242188 11.21875 -17.925781 11.21875 -16.25 L 11.21875 -5.34375 C 11.21875 -3.675781 10.820312 -2.367188 10.03125 -1.421875 C 9.238281 -0.472656 8 0 6.3125 0 L 1.234375 0 L 1.234375 -21.640625 Z M 6.28125 -2.1875 C 7.144531 -2.1875 7.785156 -2.445312 8.203125 -2.96875 C 8.628906 -3.5 8.84375 -4.257812 8.84375 -5.25 L 8.84375 -16.375 C 8.84375 -17.363281 8.628906 -18.117188 8.203125 -18.640625 C 7.785156 -19.171875 7.132812 -19.4375 6.25 -19.4375 L 3.640625 -19.4375 L 3.640625 -2.1875 Z M 6.28125 -2.1875 "/></g></g></g><g fill="#faf2e9" fill-opacity="1"><g transform="translate(149.700421, 324.604685)"><g><path d="M 8.9375 -12.046875 L 8.9375 -9.890625 L 3.640625 -9.890625 L 3.640625 -2.1875 L 10.140625 -2.1875 L 10.140625 0 L 1.234375 0 L 1.234375 -21.640625 L 10.140625 -21.640625 L 10.140625 -19.4375 L 3.640625 -19.4375 L 3.640625 -12.046875 Z M 8.9375 -12.046875 "/></g></g></g><g fill="#faf2e9" fill-opacity="1"><g transform="translate(163.915647, 324.604685)"><g/></g></g><g fill="#faf2e9" fill-opacity="1"><g transform="translate(171.796363, 324.604685)"><g><path d="M 3.0625 -21.640625 L 6.578125 -2.8125 L 10.078125 -21.640625 L 12.296875 -21.640625 L 8.25 0 L 4.703125 0 L 0.625 -21.640625 Z M 3.0625 -21.640625 "/></g></g></g><g fill="#faf2e9" fill-opacity="1"><g transform="translate(187.803782, 324.604685)"><g><path d="M 8.9375 -12.046875 L 8.9375 -9.890625 L 3.640625 -9.890625 L 3.640625 -2.1875 L 10.140625 -2.1875 L 10.140625 0 L 1.234375 0 L 1.234375 -21.640625 L 10.140625 -21.640625 L 10.140625 -19.4375 L 3.640625 -19.4375 L 3.640625 -12.046875 Z M 8.9375 -12.046875 "/></g></g></g><g fill="#faf2e9" fill-opacity="1"><g transform="translate(202.019009, 324.604685)"><g><path d="M 5.90625 -21.84375 C 7.570312 -21.84375 8.800781 -21.347656 9.59375 -20.359375 C 10.382812 -19.378906 10.78125 -18.0625 10.78125 -16.40625 L 10.78125 -14.46875 L 8.5 -14.46875 L 8.5 -16.53125 C 8.5 -17.519531 8.296875 -18.285156 7.890625 -18.828125 C 7.492188 -19.378906 6.851562 -19.65625 5.96875 -19.65625 C 5.101562 -19.65625 4.460938 -19.378906 4.046875 -18.828125 C 3.640625 -18.285156 3.4375 -17.519531 3.4375 -16.53125 L 3.4375 -5.09375 C 3.4375 -4.101562 3.640625 -3.335938 4.046875 -2.796875 C 4.460938 -2.253906 5.101562 -1.984375 5.96875 -1.984375 C 6.851562 -1.984375 7.492188 -2.253906 7.890625 -2.796875 C 8.296875 -3.335938 8.5 -4.101562 8.5 -5.09375 L 8.5 -7.90625 L 10.78125 -7.90625 L 10.78125 -5.21875 C 10.78125 -3.570312 10.382812 -2.253906 9.59375 -1.265625 C 8.800781 -0.273438 7.570312 0.21875 5.90625 0.21875 C 4.257812 0.21875 3.035156 -0.273438 2.234375 -1.265625 C 1.441406 -2.253906 1.046875 -3.570312 1.046875 -5.21875 L 1.046875 -16.40625 C 1.046875 -17.226562 1.144531 -17.972656 1.34375 -18.640625 C 1.539062 -19.316406 1.835938 -19.890625 2.234375 -20.359375 C 2.640625 -20.835938 3.144531 -21.203125 3.75 -21.453125 C 4.363281 -21.710938 5.082031 -21.84375 5.90625 -21.84375 Z M 5.90625 -21.84375 "/></g></g></g><g fill="#faf2e9" fill-opacity="1"><g transform="translate(216.852213, 324.604685)"><g><path d="M 3.640625 -21.640625 L 3.640625 0 L 1.234375 0 L 1.234375 -21.640625 Z M 3.640625 -21.640625 "/></g></g></g><g fill="#faf2e9" fill-opacity="1"><g transform="translate(224.825631, 324.604685)"><g><path d="M 3.375 0 L 1.203125 0 L 1.203125 -21.640625 L 4.265625 -21.640625 L 9.265625 -6 L 9.265625 -21.640625 L 11.40625 -21.640625 L 11.40625 0 L 8.90625 0 L 3.375 -17.5 Z M 3.375 0 "/></g></g></g><g fill="#faf2e9" fill-opacity="1"><g transform="translate(240.554941, 324.604685)"><g><path d="M 6.3125 -21.640625 C 8 -21.640625 9.238281 -21.160156 10.03125 -20.203125 C 10.820312 -19.242188 11.21875 -17.925781 11.21875 -16.25 L 11.21875 -5.34375 C 11.21875 -3.675781 10.820312 -2.367188 10.03125 -1.421875 C 9.238281 -0.472656 8 0 6.3125 0 L 1.234375 0 L 1.234375 -21.640625 Z M 6.28125 -2.1875 C 7.144531 -2.1875 7.785156 -2.445312 8.203125 -2.96875 C 8.628906 -3.5 8.84375 -4.257812 8.84375 -5.25 L 8.84375 -16.375 C 8.84375 -17.363281 8.628906 -18.117188 8.203125 -18.640625 C 7.785156 -19.171875 7.132812 -19.4375 6.25 -19.4375 L 3.640625 -19.4375 L 3.640625 -2.1875 Z M 6.28125 -2.1875 "/></g></g></g><g fill="#faf2e9" fill-opacity="1"><g transform="translate(255.882554, 324.604685)"><g><path d="M 3.671875 -4.359375 L 2.84375 0 L 0.625 0 L 4.765625 -21.640625 L 8.25 -21.640625 L 12.390625 0 L 9.984375 0 L 9.140625 -4.359375 Z M 3.984375 -6.421875 L 8.8125 -6.421875 L 6.359375 -18.921875 Z M 3.984375 -6.421875 "/></g></g></g><g fill="#faf2e9" fill-opacity="1"><g transform="translate(272.013577, 324.604685)"><g><path d="M 6.0625 -21.640625 C 7.769531 -21.640625 9 -21.210938 9.75 -20.359375 C 10.5 -19.515625 10.875 -18.289062 10.875 -16.6875 L 10.875 -14.921875 C 10.875 -13.734375 10.65625 -12.765625 10.21875 -12.015625 C 9.789062 -11.273438 9.113281 -10.765625 8.1875 -10.484375 C 9.175781 -10.191406 9.875 -9.65625 10.28125 -8.875 C 10.695312 -8.101562 10.90625 -7.132812 10.90625 -5.96875 L 10.90625 -2.59375 C 10.90625 -2.125 10.925781 -1.664062 10.96875 -1.21875 C 11.007812 -0.78125 11.132812 -0.375 11.34375 0 L 8.90625 0 C 8.757812 -0.3125 8.65625 -0.644531 8.59375 -1 C 8.53125 -1.363281 8.5 -1.90625 8.5 -2.625 L 8.5 -6.03125 C 8.5 -7.238281 8.222656 -8.070312 7.671875 -8.53125 C 7.128906 -9 6.351562 -9.234375 5.34375 -9.234375 L 3.640625 -9.234375 L 3.640625 0 L 1.234375 0 L 1.234375 -21.640625 Z M 5.4375 -11.4375 C 6.40625 -11.4375 7.15625 -11.632812 7.6875 -12.03125 C 8.226562 -12.4375 8.5 -13.226562 8.5 -14.40625 L 8.5 -16.46875 C 8.5 -17.457031 8.304688 -18.195312 7.921875 -18.6875 C 7.546875 -19.1875 6.90625 -19.4375 6 -19.4375 L 3.640625 -19.4375 L 3.640625 -11.4375 Z M 5.4375 -11.4375 "/></g></g></g><g fill="#faf2e9" fill-opacity="1"><g transform="translate(287.279388, 324.604685)"><g><path d="M 3.640625 -21.640625 L 3.640625 0 L 1.234375 0 L 1.234375 -21.640625 Z M 3.640625 -21.640625 "/></g></g></g><g fill="#faf2e9" fill-opacity="1"><g transform="translate(295.252807, 324.604685)"><g><path d="M 1.046875 -16.40625 C 1.046875 -18.082031 1.453125 -19.40625 2.265625 -20.375 C 3.085938 -21.351562 4.332031 -21.84375 6 -21.84375 C 7.664062 -21.84375 8.910156 -21.351562 9.734375 -20.375 C 10.554688 -19.40625 10.96875 -18.082031 10.96875 -16.40625 L 10.96875 -5.21875 C 10.96875 -3.570312 10.554688 -2.253906 9.734375 -1.265625 C 8.910156 -0.273438 7.664062 0.21875 6 0.21875 C 4.332031 0.21875 3.085938 -0.273438 2.265625 -1.265625 C 1.453125 -2.253906 1.046875 -3.570312 1.046875 -5.21875 Z M 3.4375 -5.09375 C 3.4375 -4.101562 3.644531 -3.335938 4.0625 -2.796875 C 4.488281 -2.253906 5.132812 -1.984375 6 -1.984375 C 6.882812 -1.984375 7.53125 -2.253906 7.9375 -2.796875 C 8.351562 -3.335938 8.5625 -4.101562 8.5625 -5.09375 L 8.5625 -16.53125 C 8.5625 -17.519531 8.351562 -18.285156 7.9375 -18.828125 C 7.53125 -19.378906 6.882812 -19.65625 6 -19.65625 C 5.132812 -19.65625 4.488281 -19.378906 4.0625 -18.828125 C 3.644531 -18.285156 3.4375 -17.519531 3.4375 -16.53125 Z M 3.4375 -5.09375 "/></g></g></g><g fill="#faf2e9" fill-opacity="1"><g transform="translate(65.445521, 219.760264)"><g><path d="M 0.71875 0 C 0.675781 0 0.640625 -0.015625 0.609375 -0.046875 C 0.578125 -0.078125 0.5625 -0.113281 0.5625 -0.15625 L 0.5625 -8.765625 C 0.5625 -8.804688 0.578125 -8.84375 0.609375 -8.875 C 0.640625 -8.90625 0.675781 -8.921875 0.71875 -8.921875 L 3.015625 -8.921875 C 3.796875 -8.921875 4.414062 -8.695312 4.875 -8.25 C 5.34375 -7.800781 5.578125 -7.203125 5.578125 -6.453125 L 5.578125 -2.46875 C 5.578125 -1.71875 5.34375 -1.117188 4.875 -0.671875 C 4.414062 -0.222656 3.796875 0 3.015625 0 Z M 2.359375 -1.609375 C 2.359375 -1.566406 2.378906 -1.546875 2.421875 -1.546875 L 3 -1.5625 C 3.226562 -1.5625 3.414062 -1.65625 3.5625 -1.84375 C 3.707031 -2.03125 3.78125 -2.28125 3.78125 -2.59375 L 3.78125 -6.34375 C 3.78125 -6.664062 3.707031 -6.914062 3.5625 -7.09375 C 3.425781 -7.28125 3.234375 -7.375 2.984375 -7.375 L 2.421875 -7.375 C 2.378906 -7.375 2.359375 -7.351562 2.359375 -7.3125 Z M 2.359375 -1.609375 "/></g></g></g><g fill="#faf2e9" fill-opacity="1"><g transform="translate(72.152646, 219.760264)"><g><path d="M 5.234375 -7.53125 C 5.234375 -7.488281 5.21875 -7.453125 5.1875 -7.421875 C 5.164062 -7.390625 5.132812 -7.375 5.09375 -7.375 L 2.421875 -7.375 C 2.378906 -7.375 2.359375 -7.351562 2.359375 -7.3125 L 2.359375 -5.296875 C 2.359375 -5.253906 2.378906 -5.234375 2.421875 -5.234375 L 3.953125 -5.234375 C 3.992188 -5.234375 4.03125 -5.21875 4.0625 -5.1875 C 4.09375 -5.164062 4.109375 -5.132812 4.109375 -5.09375 L 4.109375 -3.84375 C 4.109375 -3.800781 4.09375 -3.765625 4.0625 -3.734375 C 4.03125 -3.710938 3.992188 -3.703125 3.953125 -3.703125 L 2.421875 -3.703125 C 2.378906 -3.703125 2.359375 -3.679688 2.359375 -3.640625 L 2.359375 -1.609375 C 2.359375 -1.566406 2.378906 -1.546875 2.421875 -1.546875 L 5.09375 -1.546875 C 5.132812 -1.546875 5.164062 -1.53125 5.1875 -1.5 C 5.21875 -1.46875 5.234375 -1.429688 5.234375 -1.390625 L 5.234375 -0.15625 C 5.234375 -0.113281 5.21875 -0.078125 5.1875 -0.046875 C 5.164062 -0.015625 5.132812 0 5.09375 0 L 0.71875 0 C 0.675781 0 0.640625 -0.015625 0.609375 -0.046875 C 0.578125 -0.078125 0.5625 -0.113281 0.5625 -0.15625 L 0.5625 -8.765625 C 0.5625 -8.804688 0.578125 -8.84375 0.609375 -8.875 C 0.640625 -8.90625 0.675781 -8.921875 0.71875 -8.921875 L 5.09375 -8.921875 C 5.132812 -8.921875 5.164062 -8.90625 5.1875 -8.875 C 5.21875 -8.84375 5.234375 -8.804688 5.234375 -8.765625 Z M 5.234375 -7.53125 "/></g></g></g><g fill="#faf2e9" fill-opacity="1"><g transform="translate(78.375224, 219.760264)"><g><path d="M 2.859375 0.109375 C 2.359375 0.109375 1.921875 0.0078125 1.546875 -0.1875 C 1.179688 -0.382812 0.894531 -0.660156 0.6875 -1.015625 C 0.476562 -1.367188 0.375 -1.773438 0.375 -2.234375 L 0.375 -2.59375 C 0.375 -2.644531 0.390625 -2.679688 0.421875 -2.703125 C 0.453125 -2.734375 0.488281 -2.75 0.53125 -2.75 L 2 -2.75 C 2.039062 -2.75 2.078125 -2.734375 2.109375 -2.703125 C 2.140625 -2.679688 2.15625 -2.644531 2.15625 -2.59375 L 2.15625 -2.328125 C 2.15625 -2.054688 2.222656 -1.835938 2.359375 -1.671875 C 2.492188 -1.515625 2.664062 -1.4375 2.875 -1.4375 C 3.070312 -1.4375 3.238281 -1.515625 3.375 -1.671875 C 3.507812 -1.828125 3.578125 -2.023438 3.578125 -2.265625 C 3.578125 -2.523438 3.492188 -2.742188 3.328125 -2.921875 C 3.160156 -3.109375 2.828125 -3.378906 2.328125 -3.734375 C 1.910156 -4.035156 1.566406 -4.304688 1.296875 -4.546875 C 1.035156 -4.785156 0.8125 -5.078125 0.625 -5.421875 C 0.4375 -5.773438 0.34375 -6.179688 0.34375 -6.640625 C 0.34375 -7.359375 0.566406 -7.9375 1.015625 -8.375 C 1.472656 -8.8125 2.070312 -9.03125 2.8125 -9.03125 C 3.550781 -9.03125 4.148438 -8.800781 4.609375 -8.34375 C 5.066406 -7.894531 5.296875 -7.304688 5.296875 -6.578125 L 5.296875 -6.265625 C 5.296875 -6.222656 5.28125 -6.1875 5.25 -6.15625 C 5.21875 -6.132812 5.179688 -6.125 5.140625 -6.125 L 3.671875 -6.125 C 3.628906 -6.125 3.59375 -6.132812 3.5625 -6.15625 C 3.53125 -6.1875 3.515625 -6.222656 3.515625 -6.265625 L 3.515625 -6.625 C 3.515625 -6.882812 3.445312 -7.09375 3.3125 -7.25 C 3.1875 -7.40625 3.019531 -7.484375 2.8125 -7.484375 C 2.601562 -7.484375 2.429688 -7.40625 2.296875 -7.25 C 2.171875 -7.101562 2.109375 -6.898438 2.109375 -6.640625 C 2.109375 -6.390625 2.1875 -6.164062 2.34375 -5.96875 C 2.507812 -5.769531 2.832031 -5.5 3.3125 -5.15625 C 3.84375 -4.757812 4.238281 -4.441406 4.5 -4.203125 C 4.769531 -3.960938 4.976562 -3.691406 5.125 -3.390625 C 5.28125 -3.097656 5.359375 -2.75 5.359375 -2.34375 C 5.359375 -1.59375 5.128906 -0.992188 4.671875 -0.546875 C 4.210938 -0.109375 3.609375 0.109375 2.859375 0.109375 Z M 2.859375 0.109375 "/></g></g></g><g fill="#faf2e9" fill-opacity="1"><g transform="translate(68.77824, 232.511536)"><g><path d="M 0.71875 0 C 0.675781 0 0.640625 -0.015625 0.609375 -0.046875 C 0.578125 -0.078125 0.5625 -0.113281 0.5625 -0.15625 L 0.5625 -8.765625 C 0.5625 -8.804688 0.578125 -8.84375 0.609375 -8.875 C 0.640625 -8.90625 0.675781 -8.921875 0.71875 -8.921875 L 3.015625 -8.921875 C 3.796875 -8.921875 4.414062 -8.695312 4.875 -8.25 C 5.34375 -7.800781 5.578125 -7.203125 5.578125 -6.453125 L 5.578125 -2.46875 C 5.578125 -1.71875 5.34375 -1.117188 4.875 -0.671875 C 4.414062 -0.222656 3.796875 0 3.015625 0 Z M 2.359375 -1.609375 C 2.359375 -1.566406 2.378906 -1.546875 2.421875 -1.546875 L 3 -1.5625 C 3.226562 -1.5625 3.414062 -1.65625 3.5625 -1.84375 C 3.707031 -2.03125 3.78125 -2.28125 3.78125 -2.59375 L 3.78125 -6.34375 C 3.78125 -6.664062 3.707031 -6.914062 3.5625 -7.09375 C 3.425781 -7.28125 3.234375 -7.375 2.984375 -7.375 L 2.421875 -7.375 C 2.378906 -7.375 2.359375 -7.351562 2.359375 -7.3125 Z M 2.359375 -1.609375 "/></g></g></g><g fill="#faf2e9" fill-opacity="1"><g transform="translate(75.485365, 232.511536)"><g><path d="M 5.234375 -7.53125 C 5.234375 -7.488281 5.21875 -7.453125 5.1875 -7.421875 C 5.164062 -7.390625 5.132812 -7.375 5.09375 -7.375 L 2.421875 -7.375 C 2.378906 -7.375 2.359375 -7.351562 2.359375 -7.3125 L 2.359375 -5.296875 C 2.359375 -5.253906 2.378906 -5.234375 2.421875 -5.234375 L 3.953125 -5.234375 C 3.992188 -5.234375 4.03125 -5.21875 4.0625 -5.1875 C 4.09375 -5.164062 4.109375 -5.132812 4.109375 -5.09375 L 4.109375 -3.84375 C 4.109375 -3.800781 4.09375 -3.765625 4.0625 -3.734375 C 4.03125 -3.710938 3.992188 -3.703125 3.953125 -3.703125 L 2.421875 -3.703125 C 2.378906 -3.703125 2.359375 -3.679688 2.359375 -3.640625 L 2.359375 -1.609375 C 2.359375 -1.566406 2.378906 -1.546875 2.421875 -1.546875 L 5.09375 -1.546875 C 5.132812 -1.546875 5.164062 -1.53125 5.1875 -1.5 C 5.21875 -1.46875 5.234375 -1.429688 5.234375 -1.390625 L 5.234375 -0.15625 C 5.234375 -0.113281 5.21875 -0.078125 5.1875 -0.046875 C 5.164062 -0.015625 5.132812 0 5.09375 0 L 0.71875 0 C 0.675781 0 0.640625 -0.015625 0.609375 -0.046875 C 0.578125 -0.078125 0.5625 -0.113281 0.5625 -0.15625 L 0.5625 -8.765625 C 0.5625 -8.804688 0.578125 -8.84375 0.609375 -8.875 C 0.640625 -8.90625 0.675781 -8.921875 0.71875 -8.921875 L 5.09375 -8.921875 C 5.132812 -8.921875 5.164062 -8.90625 5.1875 -8.875 C 5.21875 -8.84375 5.234375 -8.804688 5.234375 -8.765625 Z M 5.234375 -7.53125 "/></g></g></g><g fill="#faf2e9" fill-opacity="1"><g transform="translate(290.01962, 224.976714)"><g><path d="M 3.65625 -2.359375 C 3.625 -2.328125 3.613281 -2.300781 3.625 -2.28125 C 3.644531 -2.257812 3.671875 -2.25 3.703125 -2.25 L 7.578125 -2.25 C 7.640625 -2.25 7.691406 -2.222656 7.734375 -2.171875 C 7.785156 -2.128906 7.8125 -2.078125 7.8125 -2.015625 L 7.8125 -0.21875 C 7.8125 -0.15625 7.785156 -0.101562 7.734375 -0.0625 C 7.691406 -0.0195312 7.640625 0 7.578125 0 L 0.71875 0 C 0.65625 0 0.601562 -0.0195312 0.5625 -0.0625 C 0.519531 -0.101562 0.5 -0.15625 0.5 -0.21875 L 0.5 -2.09375 C 0.5 -2.207031 0.53125 -2.300781 0.59375 -2.375 C 1.082031 -3.03125 1.425781 -3.472656 1.625 -3.703125 C 2.71875 -5.109375 3.492188 -6.164062 3.953125 -6.875 C 4.617188 -7.9375 4.953125 -8.832031 4.953125 -9.5625 C 4.953125 -9.988281 4.867188 -10.316406 4.703125 -10.546875 C 4.535156 -10.773438 4.3125 -10.890625 4.03125 -10.890625 C 3.738281 -10.890625 3.503906 -10.773438 3.328125 -10.546875 C 3.160156 -10.316406 3.082031 -10.019531 3.09375 -9.65625 L 3.09375 -8.90625 C 3.09375 -8.84375 3.070312 -8.789062 3.03125 -8.75 C 2.988281 -8.707031 2.9375 -8.6875 2.875 -8.6875 L 0.671875 -8.6875 C 0.609375 -8.6875 0.550781 -8.707031 0.5 -8.75 C 0.457031 -8.789062 0.4375 -8.84375 0.4375 -8.90625 L 0.4375 -9.78125 C 0.488281 -10.789062 0.851562 -11.597656 1.53125 -12.203125 C 2.21875 -12.816406 3.085938 -13.125 4.140625 -13.125 C 5.171875 -13.125 6.003906 -12.796875 6.640625 -12.140625 C 7.285156 -11.492188 7.609375 -10.628906 7.609375 -9.546875 C 7.609375 -8.910156 7.503906 -8.300781 7.296875 -7.71875 C 7.085938 -7.132812 6.757812 -6.507812 6.3125 -5.84375 C 5.957031 -5.332031 5.363281 -4.539062 4.53125 -3.46875 Z M 3.65625 -2.359375 "/></g></g></g><g fill="#faf2e9" fill-opacity="1"><g transform="translate(299.070717, 224.976714)"><g><path d="M 4.1875 0.203125 C 3.101562 0.203125 2.226562 -0.140625 1.5625 -0.828125 C 0.894531 -1.515625 0.5625 -2.421875 0.5625 -3.546875 L 0.5625 -9.4375 C 0.5625 -10.5625 0.894531 -11.46875 1.5625 -12.15625 C 2.226562 -12.84375 3.101562 -13.1875 4.1875 -13.1875 C 4.90625 -13.1875 5.539062 -13.03125 6.09375 -12.71875 C 6.65625 -12.414062 7.085938 -11.976562 7.390625 -11.40625 C 7.691406 -10.832031 7.84375 -10.175781 7.84375 -9.4375 L 7.84375 -3.546875 C 7.84375 -2.796875 7.691406 -2.132812 7.390625 -1.5625 C 7.085938 -1 6.65625 -0.5625 6.09375 -0.25 C 5.539062 0.0507812 4.90625 0.203125 4.1875 0.203125 Z M 4.1875 -2.046875 C 4.5 -2.046875 4.75 -2.164062 4.9375 -2.40625 C 5.132812 -2.65625 5.234375 -2.984375 5.234375 -3.390625 L 5.234375 -9.59375 C 5.234375 -10 5.132812 -10.320312 4.9375 -10.5625 C 4.75 -10.8125 4.5 -10.9375 4.1875 -10.9375 C 3.882812 -10.9375 3.640625 -10.8125 3.453125 -10.5625 C 3.265625 -10.320312 3.171875 -10 3.171875 -9.59375 L 3.171875 -3.390625 C 3.171875 -2.984375 3.265625 -2.65625 3.453125 -2.40625 C 3.640625 -2.164062 3.882812 -2.046875 4.1875 -2.046875 Z M 4.1875 -2.046875 "/></g></g></g><g fill="#faf2e9" fill-opacity="1"><g transform="translate(291.577304, 243.524019)"><g><path d="M 1.859375 -12.921875 C 1.953125 -12.960938 2.046875 -12.984375 2.140625 -12.984375 L 4.375 -12.984375 C 4.4375 -12.984375 4.488281 -12.960938 4.53125 -12.921875 C 4.570312 -12.878906 4.59375 -12.828125 4.59375 -12.765625 L 4.59375 -0.21875 C 4.59375 -0.15625 4.570312 -0.101562 4.53125 -0.0625 C 4.488281 -0.0195312 4.4375 0 4.375 0 L 2.203125 0 C 2.140625 0 2.085938 -0.0195312 2.046875 -0.0625 C 2.003906 -0.101562 1.984375 -0.15625 1.984375 -0.21875 L 1.984375 -10.34375 C 1.984375 -10.394531 1.953125 -10.421875 1.890625 -10.421875 L 0.46875 -10.25 L 0.421875 -10.25 C 0.285156 -10.25 0.21875 -10.316406 0.21875 -10.453125 L 0.171875 -12.0625 C 0.171875 -12.175781 0.222656 -12.257812 0.328125 -12.3125 Z M 1.859375 -12.921875 "/></g></g></g><g fill="#faf2e9" fill-opacity="1"><g transform="translate(297.772111, 243.524019)"><g><path d="M 6.3125 -6.84375 C 6.257812 -6.789062 6.265625 -6.75 6.328125 -6.71875 C 6.734375 -6.457031 7.035156 -6.09375 7.234375 -5.625 C 7.484375 -5.09375 7.609375 -4.46875 7.609375 -3.75 C 7.609375 -3.175781 7.507812 -2.609375 7.3125 -2.046875 C 7.050781 -1.359375 6.632812 -0.820312 6.0625 -0.4375 C 5.5 -0.0507812 4.835938 0.140625 4.078125 0.140625 C 3.328125 0.140625 2.664062 -0.046875 2.09375 -0.421875 C 1.53125 -0.804688 1.117188 -1.347656 0.859375 -2.046875 C 0.660156 -2.546875 0.5625 -3.113281 0.5625 -3.75 C 0.5625 -4.4375 0.671875 -5.039062 0.890625 -5.5625 C 1.066406 -6.03125 1.382812 -6.410156 1.84375 -6.703125 C 1.914062 -6.734375 1.914062 -6.769531 1.84375 -6.8125 C 1.40625 -7.101562 1.09375 -7.472656 0.90625 -7.921875 C 0.675781 -8.460938 0.5625 -9.035156 0.5625 -9.640625 C 0.5625 -10.304688 0.675781 -10.882812 0.90625 -11.375 C 1.164062 -11.945312 1.578125 -12.394531 2.140625 -12.71875 C 2.703125 -13.050781 3.347656 -13.21875 4.078125 -13.21875 C 4.796875 -13.21875 5.429688 -13.0625 5.984375 -12.75 C 6.546875 -12.4375 6.960938 -11.984375 7.234375 -11.390625 C 7.484375 -10.867188 7.609375 -10.285156 7.609375 -9.640625 C 7.609375 -9.035156 7.488281 -8.46875 7.25 -7.9375 C 7.0625 -7.488281 6.75 -7.125 6.3125 -6.84375 Z M 3.25 -10.15625 C 3.175781 -9.9375 3.140625 -9.6875 3.140625 -9.40625 C 3.140625 -9.125 3.179688 -8.835938 3.265625 -8.546875 C 3.316406 -8.296875 3.410156 -8.097656 3.546875 -7.953125 C 3.691406 -7.804688 3.867188 -7.734375 4.078125 -7.734375 C 4.285156 -7.734375 4.460938 -7.8125 4.609375 -7.96875 C 4.765625 -8.125 4.867188 -8.320312 4.921875 -8.5625 C 4.992188 -8.8125 5.03125 -9.085938 5.03125 -9.390625 C 5.03125 -9.703125 4.984375 -9.972656 4.890625 -10.203125 C 4.828125 -10.429688 4.722656 -10.617188 4.578125 -10.765625 C 4.441406 -10.910156 4.273438 -10.984375 4.078125 -10.984375 C 3.867188 -10.984375 3.691406 -10.910156 3.546875 -10.765625 C 3.410156 -10.617188 3.3125 -10.414062 3.25 -10.15625 Z M 4.953125 -3.09375 C 5.003906 -3.414062 5.03125 -3.6875 5.03125 -3.90625 C 5.03125 -4.28125 4.992188 -4.601562 4.921875 -4.875 C 4.859375 -5.144531 4.753906 -5.359375 4.609375 -5.515625 C 4.460938 -5.671875 4.285156 -5.75 4.078125 -5.75 C 3.859375 -5.75 3.671875 -5.664062 3.515625 -5.5 C 3.367188 -5.34375 3.273438 -5.125 3.234375 -4.84375 C 3.171875 -4.5625 3.140625 -4.265625 3.140625 -3.953125 C 3.140625 -3.609375 3.160156 -3.3125 3.203125 -3.0625 C 3.253906 -2.757812 3.351562 -2.519531 3.5 -2.34375 C 3.65625 -2.175781 3.847656 -2.09375 4.078125 -2.09375 C 4.316406 -2.09375 4.507812 -2.179688 4.65625 -2.359375 C 4.8125 -2.546875 4.910156 -2.789062 4.953125 -3.09375 Z M 4.953125 -3.09375 "/></g></g></g></svg>